<svg viewBox="0 0 772 340" xmlns="http://www.w3.org/2000/svg">
<text x="195.0" y="28.0" font-size="16" text-anchor="middle" fill="#222222" font-weight="bold" font-family="sans-serif">横ラベル h（行スキャン）</text>
<line x1="195.00" y1="80.02" x2="195.00" y2="110.04" stroke="#999999" stroke-width="1.5" stroke-dasharray="5 4"/>
<line x1="169.00" y1="125.06" x2="195.00" y2="110.04" stroke="#999999" stroke-width="1.5" stroke-dasharray="5 4"/>
<line x1="195.00" y1="110.04" x2="221.00" y2="125.06" stroke="#999999" stroke-width="1.5" stroke-dasharray="5 4"/>
<line x1="221.00" y1="125.06" x2="221.00" y2="155.08" stroke="#999999" stroke-width="1.5" stroke-dasharray="5 4"/>
<line x1="195.00" y1="170.09" x2="221.00" y2="155.08" stroke="#999999" stroke-width="1.5" stroke-dasharray="5 4"/>
<line x1="247.00" y1="170.09" x2="247.00" y2="200.11" stroke="#999999" stroke-width="1.5" stroke-dasharray="5 4"/>
<line x1="117.00" y1="215.12" x2="143.00" y2="200.11" stroke="#999999" stroke-width="1.5" stroke-dasharray="5 4"/>
<line x1="117.00" y1="215.12" x2="117.00" y2="245.14" stroke="#999999" stroke-width="1.5" stroke-dasharray="5 4"/>
<line x1="143.00" y1="200.11" x2="169.00" y2="215.12" stroke="#999999" stroke-width="1.5" stroke-dasharray="5 4"/>
<line x1="221.00" y1="215.12" x2="221.00" y2="245.14" stroke="#999999" stroke-width="1.5" stroke-dasharray="5 4"/>
<line x1="247.00" y1="200.11" x2="273.00" y2="215.12" stroke="#999999" stroke-width="1.5" stroke-dasharray="5 4"/>
<line x1="273.00" y1="215.12" x2="273.00" y2="245.14" stroke="#999999" stroke-width="1.5" stroke-dasharray="5 4"/>
<line x1="91.00" y1="260.16" x2="117.00" y2="245.14" stroke="#999999" stroke-width="1.5" stroke-dasharray="5 4"/>
<line x1="91.00" y1="260.16" x2="91.00" y2="290.18" stroke="#999999" stroke-width="1.5" stroke-dasharray="5 4"/>
<line x1="117.00" y1="245.14" x2="143.00" y2="260.16" stroke="#999999" stroke-width="1.5" stroke-dasharray="5 4"/>
<line x1="143.00" y1="260.16" x2="143.00" y2="290.18" stroke="#999999" stroke-width="1.5" stroke-dasharray="5 4"/>
<line x1="169.00" y1="245.14" x2="195.00" y2="260.16" stroke="#999999" stroke-width="1.5" stroke-dasharray="5 4"/>
<line x1="195.00" y1="260.16" x2="195.00" y2="290.18" stroke="#999999" stroke-width="1.5" stroke-dasharray="5 4"/>
<line x1="221.00" y1="245.14" x2="247.00" y2="260.16" stroke="#999999" stroke-width="1.5" stroke-dasharray="5 4"/>
<line x1="247.00" y1="260.16" x2="247.00" y2="290.18" stroke="#999999" stroke-width="1.5" stroke-dasharray="5 4"/>
<line x1="273.00" y1="245.14" x2="299.00" y2="260.16" stroke="#999999" stroke-width="1.5" stroke-dasharray="5 4"/>
<line x1="65.00" y1="305.19" x2="91.00" y2="290.18" stroke="#999999" stroke-width="1.5" stroke-dasharray="5 4"/>
<line x1="91.00" y1="290.18" x2="117.00" y2="305.19" stroke="#999999" stroke-width="1.5" stroke-dasharray="5 4"/>
<line x1="117.00" y1="305.19" x2="143.00" y2="290.18" stroke="#999999" stroke-width="1.5" stroke-dasharray="5 4"/>
<line x1="169.00" y1="305.19" x2="195.00" y2="290.18" stroke="#999999" stroke-width="1.5" stroke-dasharray="5 4"/>
<line x1="195.00" y1="290.18" x2="221.00" y2="305.19" stroke="#999999" stroke-width="1.5" stroke-dasharray="5 4"/>
<line x1="247.00" y1="290.18" x2="273.00" y2="305.19" stroke="#999999" stroke-width="1.5" stroke-dasharray="5 4"/>
<line x1="273.00" y1="305.19" x2="299.00" y2="290.18" stroke="#999999" stroke-width="1.5" stroke-dasharray="5 4"/>
<line x1="299.00" y1="290.18" x2="325.00" y2="305.19" stroke="#999999" stroke-width="1.5" stroke-dasharray="5 4"/>
<line x1="169.00" y1="125.06" x2="169.00" y2="155.08" stroke="#333333" stroke-width="2.5"/>
<line x1="143.00" y1="170.09" x2="169.00" y2="155.08" stroke="#333333" stroke-width="2.5"/>
<line x1="143.00" y1="170.09" x2="143.00" y2="200.11" stroke="#333333" stroke-width="2.5"/>
<line x1="169.00" y1="155.08" x2="195.00" y2="170.09" stroke="#333333" stroke-width="2.5"/>
<line x1="221.00" y1="155.08" x2="247.00" y2="170.09" stroke="#333333" stroke-width="2.5"/>
<line x1="169.00" y1="215.12" x2="169.00" y2="245.14" stroke="#333333" stroke-width="2.5"/>
<line x1="221.00" y1="215.12" x2="247.00" y2="200.11" stroke="#333333" stroke-width="2.5"/>
<line x1="143.00" y1="260.16" x2="169.00" y2="245.14" stroke="#333333" stroke-width="2.5"/>
<line x1="195.00" y1="260.16" x2="221.00" y2="245.14" stroke="#333333" stroke-width="2.5"/>
<line x1="247.00" y1="260.16" x2="273.00" y2="245.14" stroke="#333333" stroke-width="2.5"/>
<line x1="299.00" y1="260.16" x2="299.00" y2="290.18" stroke="#333333" stroke-width="2.5"/>
<line x1="143.00" y1="290.18" x2="169.00" y2="305.19" stroke="#333333" stroke-width="2.5"/>
<line x1="221.00" y1="305.19" x2="247.00" y2="290.18" stroke="#333333" stroke-width="2.5"/>
<circle cx="195.00" cy="80.02" r="13" fill="#f2c14e" stroke="#444444" stroke-width="1.2"/>
<text x="195.0" y="85.0" font-size="14" text-anchor="middle" fill="#222222" font-weight="bold" font-family="sans-serif">1</text>
<circle cx="169.00" cy="125.06" r="13" fill="#f2c14e" stroke="#444444" stroke-width="1.2"/>
<text x="169.0" y="130.1" font-size="14" text-anchor="middle" fill="#222222" font-weight="bold" font-family="sans-serif">3</text>
<circle cx="195.00" cy="110.04" r="13" fill="#f2c14e" stroke="#444444" stroke-width="1.2"/>
<text x="195.0" y="115.0" font-size="14" text-anchor="middle" fill="#222222" font-weight="bold" font-family="sans-serif">3</text>
<circle cx="221.00" cy="125.06" r="13" fill="#f2c14e" stroke="#444444" stroke-width="1.2"/>
<text x="221.0" y="130.1" font-size="14" text-anchor="middle" fill="#222222" font-weight="bold" font-family="sans-serif">3</text>
<circle cx="143.00" cy="170.09" r="13" fill="#e59866" stroke="#444444" stroke-width="1.2"/>
<text x="143.0" y="175.1" font-size="14" text-anchor="middle" fill="#222222" font-weight="bold" font-family="sans-serif">5</text>
<circle cx="169.00" cy="155.08" r="13" fill="#aab7b8" stroke="#444444" stroke-width="1.2"/>
<text x="169.0" y="160.1" font-size="14" text-anchor="middle" fill="#222222" font-weight="bold" font-family="sans-serif">6</text>
<circle cx="195.00" cy="170.09" r="13" fill="#f2c14e" stroke="#444444" stroke-width="1.2"/>
<text x="195.0" y="175.1" font-size="14" text-anchor="middle" fill="#222222" font-weight="bold" font-family="sans-serif">7</text>
<circle cx="221.00" cy="155.08" r="13" fill="#f2c14e" stroke="#444444" stroke-width="1.2"/>
<text x="221.0" y="160.1" font-size="14" text-anchor="middle" fill="#222222" font-weight="bold" font-family="sans-serif">7</text>
<circle cx="247.00" cy="170.09" r="13" fill="#7fb3d5" stroke="#444444" stroke-width="1.2"/>
<text x="247.0" y="175.1" font-size="14" text-anchor="middle" fill="#222222" font-weight="bold" font-family="sans-serif">8</text>
<circle cx="117.00" cy="215.12" r="13" fill="#c39bd3" stroke="#444444" stroke-width="1.2"/>
<text x="117.0" y="220.1" font-size="14" text-anchor="middle" fill="#222222" font-weight="bold" font-family="sans-serif">10</text>
<circle cx="143.00" cy="200.11" r="13" fill="#c39bd3" stroke="#444444" stroke-width="1.2"/>
<text x="143.0" y="205.1" font-size="14" text-anchor="middle" fill="#222222" font-weight="bold" font-family="sans-serif">10</text>
<circle cx="169.00" cy="215.12" r="13" fill="#c39bd3" stroke="#444444" stroke-width="1.2"/>
<text x="169.0" y="220.1" font-size="14" text-anchor="middle" fill="#222222" font-weight="bold" font-family="sans-serif">10</text>
<circle cx="195.00" cy="200.11" r="13" fill="#ffffff" stroke="#444444" stroke-width="1.2" stroke-dasharray="3 2"/>
<text x="195.0" y="205.1" font-size="14" text-anchor="middle" fill="#222222" font-weight="bold" font-family="sans-serif">11</text>
<circle cx="221.00" cy="215.12" r="13" fill="#8fce9f" stroke="#444444" stroke-width="1.2"/>
<text x="221.0" y="220.1" font-size="14" text-anchor="middle" fill="#222222" font-weight="bold" font-family="sans-serif">12</text>
<circle cx="247.00" cy="200.11" r="13" fill="#7fb3d5" stroke="#444444" stroke-width="1.2"/>
<text x="247.0" y="205.1" font-size="14" text-anchor="middle" fill="#222222" font-weight="bold" font-family="sans-serif">13</text>
<circle cx="273.00" cy="215.12" r="13" fill="#7fb3d5" stroke="#444444" stroke-width="1.2"/>
<text x="273.0" y="220.1" font-size="14" text-anchor="middle" fill="#222222" font-weight="bold" font-family="sans-serif">13</text>
<circle cx="91.00" cy="260.16" r="13" fill="#c39bd3" stroke="#444444" stroke-width="1.2"/>
<text x="91.0" y="265.2" font-size="14" text-anchor="middle" fill="#222222" font-weight="bold" font-family="sans-serif">15</text>
<circle cx="117.00" cy="245.14" r="13" fill="#c39bd3" stroke="#444444" stroke-width="1.2"/>
<text x="117.0" y="250.1" font-size="14" text-anchor="middle" fill="#222222" font-weight="bold" font-family="sans-serif">15</text>
<circle cx="143.00" cy="260.16" r="13" fill="#c39bd3" stroke="#444444" stroke-width="1.2"/>
<text x="143.0" y="265.2" font-size="14" text-anchor="middle" fill="#222222" font-weight="bold" font-family="sans-serif">15</text>
<circle cx="169.00" cy="245.14" r="13" fill="#e57373" stroke="#444444" stroke-width="1.2"/>
<text x="169.0" y="250.1" font-size="14" text-anchor="middle" fill="#222222" font-weight="bold" font-family="sans-serif">16</text>
<circle cx="195.00" cy="260.16" r="13" fill="#e57373" stroke="#444444" stroke-width="1.2"/>
<text x="195.0" y="265.2" font-size="14" text-anchor="middle" fill="#222222" font-weight="bold" font-family="sans-serif">16</text>
<circle cx="221.00" cy="245.14" r="13" fill="#8fce9f" stroke="#444444" stroke-width="1.2"/>
<text x="221.0" y="250.1" font-size="14" text-anchor="middle" fill="#222222" font-weight="bold" font-family="sans-serif">17</text>
<circle cx="247.00" cy="260.16" r="13" fill="#8fce9f" stroke="#444444" stroke-width="1.2"/>
<text x="247.0" y="265.2" font-size="14" text-anchor="middle" fill="#222222" font-weight="bold" font-family="sans-serif">17</text>
<circle cx="273.00" cy="245.14" r="13" fill="#7fb3d5" stroke="#444444" stroke-width="1.2"/>
<text x="273.0" y="250.1" font-size="14" text-anchor="middle" fill="#222222" font-weight="bold" font-family="sans-serif">18</text>
<circle cx="299.00" cy="260.16" r="13" fill="#7fb3d5" stroke="#444444" stroke-width="1.2"/>
<text x="299.0" y="265.2" font-size="14" text-anchor="middle" fill="#222222" font-weight="bold" font-family="sans-serif">18</text>
<circle cx="65.00" cy="305.19" r="13" fill="#c39bd3" stroke="#444444" stroke-width="1.2"/>
<text x="65.0" y="310.2" font-size="14" text-anchor="middle" fill="#222222" font-weight="bold" font-family="sans-serif">20</text>
<circle cx="91.00" cy="290.18" r="13" fill="#c39bd3" stroke="#444444" stroke-width="1.2"/>
<text x="91.0" y="295.2" font-size="14" text-anchor="middle" fill="#222222" font-weight="bold" font-family="sans-serif">20</text>
<circle cx="117.00" cy="305.19" r="13" fill="#c39bd3" stroke="#444444" stroke-width="1.2"/>
<text x="117.0" y="310.2" font-size="14" text-anchor="middle" fill="#222222" font-weight="bold" font-family="sans-serif">20</text>
<circle cx="143.00" cy="290.18" r="13" fill="#c39bd3" stroke="#444444" stroke-width="1.2"/>
<text x="143.0" y="295.2" font-size="14" text-anchor="middle" fill="#222222" font-weight="bold" font-family="sans-serif">20</text>
<circle cx="169.00" cy="305.19" r="13" fill="#e57373" stroke="#444444" stroke-width="1.2"/>
<text x="169.0" y="310.2" font-size="14" text-anchor="middle" fill="#222222" font-weight="bold" font-family="sans-serif">21</text>
<circle cx="195.00" cy="290.18" r="13" fill="#e57373" stroke="#444444" stroke-width="1.2"/>
<text x="195.0" y="295.2" font-size="14" text-anchor="middle" fill="#222222" font-weight="bold" font-family="sans-serif">21</text>
<circle cx="221.00" cy="305.19" r="13" fill="#e57373" stroke="#444444" stroke-width="1.2"/>
<text x="221.0" y="310.2" font-size="14" text-anchor="middle" fill="#222222" font-weight="bold" font-family="sans-serif">21</text>
<circle cx="247.00" cy="290.18" r="13" fill="#8fce9f" stroke="#444444" stroke-width="1.2"/>
<text x="247.0" y="295.2" font-size="14" text-anchor="middle" fill="#222222" font-weight="bold" font-family="sans-serif">22</text>
<circle cx="273.00" cy="305.19" r="13" fill="#8fce9f" stroke="#444444" stroke-width="1.2"/>
<text x="273.0" y="310.2" font-size="14" text-anchor="middle" fill="#222222" font-weight="bold" font-family="sans-serif">22</text>
<circle cx="299.00" cy="290.18" r="13" fill="#8fce9f" stroke="#444444" stroke-width="1.2"/>
<text x="299.0" y="295.2" font-size="14" text-anchor="middle" fill="#222222" font-weight="bold" font-family="sans-serif">22</text>
<circle cx="325.00" cy="305.19" r="13" fill="#8fce9f" stroke="#444444" stroke-width="1.2"/>
<text x="325.0" y="310.2" font-size="14" text-anchor="middle" fill="#222222" font-weight="bold" font-family="sans-serif">22</text>
<text x="577.0" y="28.0" font-size="16" text-anchor="middle" fill="#222222" font-weight="bold" font-family="sans-serif">縦ラベル v（列スキャン）</text>
<line x1="577.00" y1="80.02" x2="577.00" y2="110.04" stroke="#999999" stroke-width="1.5" stroke-dasharray="5 4"/>
<line x1="551.00" y1="125.06" x2="577.00" y2="110.04" stroke="#999999" stroke-width="1.5" stroke-dasharray="5 4"/>
<line x1="577.00" y1="110.04" x2="603.00" y2="125.06" stroke="#999999" stroke-width="1.5" stroke-dasharray="5 4"/>
<line x1="603.00" y1="125.06" x2="603.00" y2="155.08" stroke="#999999" stroke-width="1.5" stroke-dasharray="5 4"/>
<line x1="577.00" y1="170.09" x2="603.00" y2="155.08" stroke="#999999" stroke-width="1.5" stroke-dasharray="5 4"/>
<line x1="629.00" y1="170.09" x2="629.00" y2="200.11" stroke="#999999" stroke-width="1.5" stroke-dasharray="5 4"/>
<line x1="499.00" y1="215.12" x2="525.00" y2="200.11" stroke="#999999" stroke-width="1.5" stroke-dasharray="5 4"/>
<line x1="499.00" y1="215.12" x2="499.00" y2="245.14" stroke="#999999" stroke-width="1.5" stroke-dasharray="5 4"/>
<line x1="525.00" y1="200.11" x2="551.00" y2="215.12" stroke="#999999" stroke-width="1.5" stroke-dasharray="5 4"/>
<line x1="603.00" y1="215.12" x2="603.00" y2="245.14" stroke="#999999" stroke-width="1.5" stroke-dasharray="5 4"/>
<line x1="629.00" y1="200.11" x2="655.00" y2="215.12" stroke="#999999" stroke-width="1.5" stroke-dasharray="5 4"/>
<line x1="655.00" y1="215.12" x2="655.00" y2="245.14" stroke="#999999" stroke-width="1.5" stroke-dasharray="5 4"/>
<line x1="473.00" y1="260.16" x2="499.00" y2="245.14" stroke="#999999" stroke-width="1.5" stroke-dasharray="5 4"/>
<line x1="473.00" y1="260.16" x2="473.00" y2="290.18" stroke="#999999" stroke-width="1.5" stroke-dasharray="5 4"/>
<line x1="499.00" y1="245.14" x2="525.00" y2="260.16" stroke="#999999" stroke-width="1.5" stroke-dasharray="5 4"/>
<line x1="525.00" y1="260.16" x2="525.00" y2="290.18" stroke="#999999" stroke-width="1.5" stroke-dasharray="5 4"/>
<line x1="551.00" y1="245.14" x2="577.00" y2="260.16" stroke="#999999" stroke-width="1.5" stroke-dasharray="5 4"/>
<line x1="577.00" y1="260.16" x2="577.00" y2="290.18" stroke="#999999" stroke-width="1.5" stroke-dasharray="5 4"/>
<line x1="603.00" y1="245.14" x2="629.00" y2="260.16" stroke="#999999" stroke-width="1.5" stroke-dasharray="5 4"/>
<line x1="629.00" y1="260.16" x2="629.00" y2="290.18" stroke="#999999" stroke-width="1.5" stroke-dasharray="5 4"/>
<line x1="655.00" y1="245.14" x2="681.00" y2="260.16" stroke="#999999" stroke-width="1.5" stroke-dasharray="5 4"/>
<line x1="447.00" y1="305.19" x2="473.00" y2="290.18" stroke="#999999" stroke-width="1.5" stroke-dasharray="5 4"/>
<line x1="473.00" y1="290.18" x2="499.00" y2="305.19" stroke="#999999" stroke-width="1.5" stroke-dasharray="5 4"/>
<line x1="499.00" y1="305.19" x2="525.00" y2="290.18" stroke="#999999" stroke-width="1.5" stroke-dasharray="5 4"/>
<line x1="551.00" y1="305.19" x2="577.00" y2="290.18" stroke="#999999" stroke-width="1.5" stroke-dasharray="5 4"/>
<line x1="577.00" y1="290.18" x2="603.00" y2="305.19" stroke="#999999" stroke-width="1.5" stroke-dasharray="5 4"/>
<line x1="629.00" y1="290.18" x2="655.00" y2="305.19" stroke="#999999" stroke-width="1.5" stroke-dasharray="5 4"/>
<line x1="655.00" y1="305.19" x2="681.00" y2="290.18" stroke="#999999" stroke-width="1.5" stroke-dasharray="5 4"/>
<line x1="681.00" y1="290.18" x2="707.00" y2="305.19" stroke="#999999" stroke-width="1.5" stroke-dasharray="5 4"/>
<line x1="551.00" y1="125.06" x2="551.00" y2="155.08" stroke="#333333" stroke-width="2.5"/>
<line x1="525.00" y1="170.09" x2="551.00" y2="155.08" stroke="#333333" stroke-width="2.5"/>
<line x1="525.00" y1="170.09" x2="525.00" y2="200.11" stroke="#333333" stroke-width="2.5"/>
<line x1="551.00" y1="155.08" x2="577.00" y2="170.09" stroke="#333333" stroke-width="2.5"/>
<line x1="603.00" y1="155.08" x2="629.00" y2="170.09" stroke="#333333" stroke-width="2.5"/>
<line x1="551.00" y1="215.12" x2="551.00" y2="245.14" stroke="#333333" stroke-width="2.5"/>
<line x1="603.00" y1="215.12" x2="629.00" y2="200.11" stroke="#333333" stroke-width="2.5"/>
<line x1="525.00" y1="260.16" x2="551.00" y2="245.14" stroke="#333333" stroke-width="2.5"/>
<line x1="577.00" y1="260.16" x2="603.00" y2="245.14" stroke="#333333" stroke-width="2.5"/>
<line x1="629.00" y1="260.16" x2="655.00" y2="245.14" stroke="#333333" stroke-width="2.5"/>
<line x1="681.00" y1="260.16" x2="681.00" y2="290.18" stroke="#333333" stroke-width="2.5"/>
<line x1="525.00" y1="290.18" x2="551.00" y2="305.19" stroke="#333333" stroke-width="2.5"/>
<line x1="603.00" y1="305.19" x2="629.00" y2="290.18" stroke="#333333" stroke-width="2.5"/>
<circle cx="577.00" cy="80.02" r="13" fill="#f2c14e" stroke="#444444" stroke-width="1.2"/>
<text x="577.0" y="85.0" font-size="14" text-anchor="middle" fill="#222222" font-weight="bold" font-family="sans-serif">1</text>
<circle cx="551.00" cy="125.06" r="13" fill="#f2c14e" stroke="#444444" stroke-width="1.2"/>
<text x="551.0" y="130.1" font-size="14" text-anchor="middle" fill="#222222" font-weight="bold" font-family="sans-serif">1</text>
<circle cx="577.00" cy="110.04" r="13" fill="#f2c14e" stroke="#444444" stroke-width="1.2"/>
<text x="577.0" y="115.0" font-size="14" text-anchor="middle" fill="#222222" font-weight="bold" font-family="sans-serif">1</text>
<circle cx="603.00" cy="125.06" r="13" fill="#f2c14e" stroke="#444444" stroke-width="1.2"/>
<text x="603.0" y="130.1" font-size="14" text-anchor="middle" fill="#222222" font-weight="bold" font-family="sans-serif">6</text>
<circle cx="525.00" cy="170.09" r="13" fill="#e59866" stroke="#444444" stroke-width="1.2"/>
<text x="525.0" y="175.1" font-size="14" text-anchor="middle" fill="#222222" font-weight="bold" font-family="sans-serif">3</text>
<circle cx="551.00" cy="155.08" r="13" fill="#aab7b8" stroke="#444444" stroke-width="1.2"/>
<text x="551.0" y="160.1" font-size="14" text-anchor="middle" fill="#222222" font-weight="bold" font-family="sans-serif">2</text>
<circle cx="577.00" cy="170.09" r="13" fill="#f2c14e" stroke="#444444" stroke-width="1.2"/>
<text x="577.0" y="175.1" font-size="14" text-anchor="middle" fill="#222222" font-weight="bold" font-family="sans-serif">6</text>
<circle cx="603.00" cy="155.08" r="13" fill="#f2c14e" stroke="#444444" stroke-width="1.2"/>
<text x="603.0" y="160.1" font-size="14" text-anchor="middle" fill="#222222" font-weight="bold" font-family="sans-serif">6</text>
<circle cx="629.00" cy="170.09" r="13" fill="#7fb3d5" stroke="#444444" stroke-width="1.2"/>
<text x="629.0" y="175.1" font-size="14" text-anchor="middle" fill="#222222" font-weight="bold" font-family="sans-serif">12</text>
<circle cx="499.00" cy="215.12" r="13" fill="#c39bd3" stroke="#444444" stroke-width="1.2"/>
<text x="499.0" y="220.1" font-size="14" text-anchor="middle" fill="#222222" font-weight="bold" font-family="sans-serif">4</text>
<circle cx="525.00" cy="200.11" r="13" fill="#c39bd3" stroke="#444444" stroke-width="1.2"/>
<text x="525.0" y="205.1" font-size="14" text-anchor="middle" fill="#222222" font-weight="bold" font-family="sans-serif">4</text>
<circle cx="551.00" cy="215.12" r="13" fill="#c39bd3" stroke="#444444" stroke-width="1.2"/>
<text x="551.0" y="220.1" font-size="14" text-anchor="middle" fill="#222222" font-weight="bold" font-family="sans-serif">8</text>
<circle cx="577.00" cy="200.11" r="13" fill="#ffffff" stroke="#444444" stroke-width="1.2" stroke-dasharray="3 2"/>
<text x="577.0" y="205.1" font-size="14" text-anchor="middle" fill="#222222" font-weight="bold" font-family="sans-serif">7</text>
<circle cx="603.00" cy="215.12" r="13" fill="#8fce9f" stroke="#444444" stroke-width="1.2"/>
<text x="603.0" y="220.1" font-size="14" text-anchor="middle" fill="#222222" font-weight="bold" font-family="sans-serif">13</text>
<circle cx="629.00" cy="200.11" r="13" fill="#7fb3d5" stroke="#444444" stroke-width="1.2"/>
<text x="629.0" y="205.1" font-size="14" text-anchor="middle" fill="#222222" font-weight="bold" font-family="sans-serif">12</text>
<circle cx="655.00" cy="215.12" r="13" fill="#7fb3d5" stroke="#444444" stroke-width="1.2"/>
<text x="655.0" y="220.1" font-size="14" text-anchor="middle" fill="#222222" font-weight="bold" font-family="sans-serif">16</text>
<circle cx="473.00" cy="260.16" r="13" fill="#c39bd3" stroke="#444444" stroke-width="1.2"/>
<text x="473.0" y="265.2" font-size="14" text-anchor="middle" fill="#222222" font-weight="bold" font-family="sans-serif">4</text>
<circle cx="499.00" cy="245.14" r="13" fill="#c39bd3" stroke="#444444" stroke-width="1.2"/>
<text x="499.0" y="250.1" font-size="14" text-anchor="middle" fill="#222222" font-weight="bold" font-family="sans-serif">4</text>
<circle cx="525.00" cy="260.16" r="13" fill="#c39bd3" stroke="#444444" stroke-width="1.2"/>
<text x="525.0" y="265.2" font-size="14" text-anchor="middle" fill="#222222" font-weight="bold" font-family="sans-serif">10</text>
<circle cx="551.00" cy="245.14" r="13" fill="#e57373" stroke="#444444" stroke-width="1.2"/>
<text x="551.0" y="250.1" font-size="14" text-anchor="middle" fill="#222222" font-weight="bold" font-family="sans-serif">9</text>
<circle cx="577.00" cy="260.16" r="13" fill="#e57373" stroke="#444444" stroke-width="1.2"/>
<text x="577.0" y="265.2" font-size="14" text-anchor="middle" fill="#222222" font-weight="bold" font-family="sans-serif">14</text>
<circle cx="603.00" cy="245.14" r="13" fill="#8fce9f" stroke="#444444" stroke-width="1.2"/>
<text x="603.0" y="250.1" font-size="14" text-anchor="middle" fill="#222222" font-weight="bold" font-family="sans-serif">13</text>
<circle cx="629.00" cy="260.16" r="13" fill="#8fce9f" stroke="#444444" stroke-width="1.2"/>
<text x="629.0" y="265.2" font-size="14" text-anchor="middle" fill="#222222" font-weight="bold" font-family="sans-serif">17</text>
<circle cx="655.00" cy="245.14" r="13" fill="#7fb3d5" stroke="#444444" stroke-width="1.2"/>
<text x="655.0" y="250.1" font-size="14" text-anchor="middle" fill="#222222" font-weight="bold" font-family="sans-serif">16</text>
<circle cx="681.00" cy="260.16" r="13" fill="#7fb3d5" stroke="#444444" stroke-width="1.2"/>
<text x="681.0" y="265.2" font-size="14" text-anchor="middle" fill="#222222" font-weight="bold" font-family="sans-serif">20</text>
<circle cx="447.00" cy="305.19" r="13" fill="#c39bd3" stroke="#444444" stroke-width="1.2"/>
<text x="447.0" y="310.2" font-size="14" text-anchor="middle" fill="#222222" font-weight="bold" font-family="sans-serif">4</text>
<circle cx="473.00" cy="290.18" r="13" fill="#c39bd3" stroke="#444444" stroke-width="1.2"/>
<text x="473.0" y="295.2" font-size="14" text-anchor="middle" fill="#222222" font-weight="bold" font-family="sans-serif">4</text>
<circle cx="499.00" cy="305.19" r="13" fill="#c39bd3" stroke="#444444" stroke-width="1.2"/>
<text x="499.0" y="310.2" font-size="14" text-anchor="middle" fill="#222222" font-weight="bold" font-family="sans-serif">10</text>
<circle cx="525.00" cy="290.18" r="13" fill="#c39bd3" stroke="#444444" stroke-width="1.2"/>
<text x="525.0" y="295.2" font-size="14" text-anchor="middle" fill="#222222" font-weight="bold" font-family="sans-serif">10</text>
<circle cx="551.00" cy="305.19" r="13" fill="#e57373" stroke="#444444" stroke-width="1.2"/>
<text x="551.0" y="310.2" font-size="14" text-anchor="middle" fill="#222222" font-weight="bold" font-family="sans-serif">14</text>
<circle cx="577.00" cy="290.18" r="13" fill="#e57373" stroke="#444444" stroke-width="1.2"/>
<text x="577.0" y="295.2" font-size="14" text-anchor="middle" fill="#222222" font-weight="bold" font-family="sans-serif">14</text>
<circle cx="603.00" cy="305.19" r="13" fill="#e57373" stroke="#444444" stroke-width="1.2"/>
<text x="603.0" y="310.2" font-size="14" text-anchor="middle" fill="#222222" font-weight="bold" font-family="sans-serif">18</text>
<circle cx="629.00" cy="290.18" r="13" fill="#8fce9f" stroke="#444444" stroke-width="1.2"/>
<text x="629.0" y="295.2" font-size="14" text-anchor="middle" fill="#222222" font-weight="bold" font-family="sans-serif">17</text>
<circle cx="655.00" cy="305.19" r="13" fill="#8fce9f" stroke="#444444" stroke-width="1.2"/>
<text x="655.0" y="310.2" font-size="14" text-anchor="middle" fill="#222222" font-weight="bold" font-family="sans-serif">21</text>
<circle cx="681.00" cy="290.18" r="13" fill="#8fce9f" stroke="#444444" stroke-width="1.2"/>
<text x="681.0" y="295.2" font-size="14" text-anchor="middle" fill="#222222" font-weight="bold" font-family="sans-serif">21</text>
<circle cx="707.00" cy="305.19" r="13" fill="#8fce9f" stroke="#444444" stroke-width="1.2"/>
<text x="707.0" y="310.2" font-size="14" text-anchor="middle" fill="#222222" font-weight="bold" font-family="sans-serif">23</text>
</svg>