<svg viewBox="0 0 378 328" xmlns="http://www.w3.org/2000/svg">
<text x="202.0" y="16.0" font-size="14" text-anchor="middle" fill="#222222" font-weight="bold" font-family="sans-serif">横ラベル h →</text>
<text x="14" y="180.0" font-size="14" text-anchor="middle" fill="#222222" font-weight="bold" font-family="sans-serif" transform="rotate(-90 14 180.0)">縦ラベル v ↓</text>
<text x="48.0" y="32.0" font-size="13" text-anchor="middle" fill="#222222" font-family="sans-serif">1</text>
<text x="104.0" y="32.0" font-size="13" text-anchor="middle" fill="#222222" font-family="sans-serif">3</text>
<text x="132.0" y="32.0" font-size="13" text-anchor="middle" fill="#222222" font-family="sans-serif">4</text>
<text x="188.0" y="32.0" font-size="13" text-anchor="middle" fill="#222222" font-family="sans-serif">6</text>
<text x="216.0" y="32.0" font-size="13" text-anchor="middle" fill="#222222" font-family="sans-serif">7</text>
<text x="244.0" y="32.0" font-size="13" text-anchor="middle" fill="#222222" font-family="sans-serif">8</text>
<text x="300.0" y="32.0" font-size="13" text-anchor="middle" fill="#222222" font-family="sans-serif">10</text>
<text x="328.0" y="32.0" font-size="13" text-anchor="middle" fill="#222222" font-family="sans-serif">11</text>
<text x="356.0" y="32.0" font-size="13" text-anchor="middle" fill="#222222" font-family="sans-serif">12</text>
<text x="25.0" y="59.0" font-size="13" text-anchor="middle" fill="#222222" font-family="sans-serif">1</text>
<text x="25.0" y="115.0" font-size="13" text-anchor="middle" fill="#222222" font-family="sans-serif">3</text>
<text x="25.0" y="143.0" font-size="13" text-anchor="middle" fill="#222222" font-family="sans-serif">4</text>
<text x="25.0" y="171.0" font-size="13" text-anchor="middle" fill="#222222" font-family="sans-serif">5</text>
<text x="25.0" y="227.0" font-size="13" text-anchor="middle" fill="#222222" font-family="sans-serif">7</text>
<text x="25.0" y="255.0" font-size="13" text-anchor="middle" fill="#222222" font-family="sans-serif">8</text>
<text x="25.0" y="311.0" font-size="13" text-anchor="middle" fill="#222222" font-family="sans-serif">10</text>
<rect x="34.0" y="40.0" width="26" height="26" fill="#7fb3d5" stroke="#444444" stroke-width="1.2"/>
<text x="47.0" y="58.0" font-size="13" text-anchor="middle" fill="#222222" font-weight="bold" font-family="sans-serif">2</text>
<rect x="90.0" y="40.0" width="26" height="26" fill="#7fb3d5" stroke="#444444" stroke-width="1.2"/>
<text x="103.0" y="58.0" font-size="13" text-anchor="middle" fill="#222222" font-weight="bold" font-family="sans-serif">2</text>
<rect x="118.0" y="40.0" width="26" height="26" fill="#fbfbfb" stroke="#e2e2e2" stroke-width="1"/>
<rect x="174.0" y="40.0" width="26" height="26" fill="#7fb3d5" stroke="#444444" stroke-width="1.2"/>
<text x="187.0" y="58.0" font-size="13" text-anchor="middle" fill="#222222" font-weight="bold" font-family="sans-serif">2</text>
<rect x="202.0" y="40.0" width="26" height="26" fill="#fbfbfb" stroke="#e2e2e2" stroke-width="1"/>
<rect x="230.0" y="40.0" width="26" height="26" fill="#fbfbfb" stroke="#e2e2e2" stroke-width="1"/>
<rect x="286.0" y="40.0" width="26" height="26" fill="#7fb3d5" stroke="#444444" stroke-width="1.2"/>
<text x="299.0" y="58.0" font-size="13" text-anchor="middle" fill="#222222" font-weight="bold" font-family="sans-serif">2</text>
<rect x="314.0" y="40.0" width="26" height="26" fill="#fbfbfb" stroke="#e2e2e2" stroke-width="1"/>
<rect x="342.0" y="40.0" width="26" height="26" fill="#fbfbfb" stroke="#e2e2e2" stroke-width="1"/>
<rect x="34.0" y="96.0" width="26" height="26" fill="#fbfbfb" stroke="#e2e2e2" stroke-width="1"/>
<rect x="90.0" y="96.0" width="26" height="26" fill="#fbfbfb" stroke="#e2e2e2" stroke-width="1"/>
<rect x="118.0" y="96.0" width="26" height="26" fill="#8fce9f" stroke="#444444" stroke-width="1.2"/>
<text x="131.0" y="114.0" font-size="13" text-anchor="middle" fill="#222222" font-weight="bold" font-family="sans-serif">3</text>
<rect x="174.0" y="96.0" width="26" height="26" fill="#fbfbfb" stroke="#e2e2e2" stroke-width="1"/>
<rect x="202.0" y="96.0" width="26" height="26" fill="#fbfbfb" stroke="#e2e2e2" stroke-width="1"/>
<rect x="230.0" y="96.0" width="26" height="26" fill="#8fce9f" stroke="#444444" stroke-width="1.2"/>
<text x="243.0" y="114.0" font-size="13" text-anchor="middle" fill="#222222" font-weight="bold" font-family="sans-serif">3</text>
<rect x="286.0" y="96.0" width="26" height="26" fill="#fbfbfb" stroke="#e2e2e2" stroke-width="1"/>
<rect x="314.0" y="96.0" width="26" height="26" fill="#fbfbfb" stroke="#e2e2e2" stroke-width="1"/>
<rect x="342.0" y="96.0" width="26" height="26" fill="#fbfbfb" stroke="#e2e2e2" stroke-width="1"/>
<rect x="34.0" y="124.0" width="26" height="26" fill="#fbfbfb" stroke="#e2e2e2" stroke-width="1"/>
<rect x="90.0" y="124.0" width="26" height="26" fill="#fbfbfb" stroke="#e2e2e2" stroke-width="1"/>
<rect x="118.0" y="124.0" width="26" height="26" fill="#fbfbfb" stroke="#e2e2e2" stroke-width="1"/>
<rect x="174.0" y="124.0" width="26" height="26" fill="#fbfbfb" stroke="#e2e2e2" stroke-width="1"/>
<rect x="202.0" y="124.0" width="26" height="26" fill="#e57373" stroke="#444444" stroke-width="1.2"/>
<text x="215.0" y="142.0" font-size="13" text-anchor="middle" fill="#222222" font-weight="bold" font-family="sans-serif">4</text>
<rect x="230.0" y="124.0" width="26" height="26" fill="#fbfbfb" stroke="#e2e2e2" stroke-width="1"/>
<rect x="286.0" y="124.0" width="26" height="26" fill="#fbfbfb" stroke="#e2e2e2" stroke-width="1"/>
<rect x="314.0" y="124.0" width="26" height="26" fill="#fbfbfb" stroke="#e2e2e2" stroke-width="1"/>
<rect x="342.0" y="124.0" width="26" height="26" fill="#fbfbfb" stroke="#e2e2e2" stroke-width="1"/>
<rect x="34.0" y="152.0" width="26" height="26" fill="#fbfbfb" stroke="#e2e2e2" stroke-width="1"/>
<rect x="90.0" y="152.0" width="26" height="26" fill="#fbfbfb" stroke="#e2e2e2" stroke-width="1"/>
<rect x="118.0" y="152.0" width="26" height="26" fill="#fbfbfb" stroke="#e2e2e2" stroke-width="1"/>
<rect x="174.0" y="152.0" width="26" height="26" fill="#fbfbfb" stroke="#e2e2e2" stroke-width="1"/>
<rect x="202.0" y="152.0" width="26" height="26" fill="#fbfbfb" stroke="#e2e2e2" stroke-width="1"/>
<rect x="230.0" y="152.0" width="26" height="26" fill="#fbfbfb" stroke="#e2e2e2" stroke-width="1"/>
<rect x="286.0" y="152.0" width="26" height="26" fill="#fbfbfb" stroke="#e2e2e2" stroke-width="1"/>
<rect x="314.0" y="152.0" width="26" height="26" fill="#f2c14e" stroke="#444444" stroke-width="1.2"/>
<text x="327.0" y="170.0" font-size="13" text-anchor="middle" fill="#222222" font-weight="bold" font-family="sans-serif">1</text>
<rect x="342.0" y="152.0" width="26" height="26" fill="#fbfbfb" stroke="#e2e2e2" stroke-width="1"/>
<rect x="34.0" y="208.0" width="26" height="26" fill="#fbfbfb" stroke="#e2e2e2" stroke-width="1"/>
<rect x="90.0" y="208.0" width="26" height="26" fill="#fbfbfb" stroke="#e2e2e2" stroke-width="1"/>
<rect x="118.0" y="208.0" width="26" height="26" fill="#fbfbfb" stroke="#e2e2e2" stroke-width="1"/>
<rect x="174.0" y="208.0" width="26" height="26" fill="#fbfbfb" stroke="#e2e2e2" stroke-width="1"/>
<rect x="202.0" y="208.0" width="26" height="26" fill="#fbfbfb" stroke="#e2e2e2" stroke-width="1"/>
<rect x="230.0" y="208.0" width="26" height="26" fill="#8fce9f" stroke="#444444" stroke-width="1.2"/>
<text x="243.0" y="226.0" font-size="13" text-anchor="middle" fill="#222222" font-weight="bold" font-family="sans-serif">3</text>
<rect x="286.0" y="208.0" width="26" height="26" fill="#fbfbfb" stroke="#e2e2e2" stroke-width="1"/>
<rect x="314.0" y="208.0" width="26" height="26" fill="#fbfbfb" stroke="#e2e2e2" stroke-width="1"/>
<rect x="342.0" y="208.0" width="26" height="26" fill="#8fce9f" stroke="#444444" stroke-width="1.2"/>
<text x="355.0" y="226.0" font-size="13" text-anchor="middle" fill="#222222" font-weight="bold" font-family="sans-serif">3</text>
<rect x="34.0" y="236.0" width="26" height="26" fill="#fbfbfb" stroke="#e2e2e2" stroke-width="1"/>
<rect x="90.0" y="236.0" width="26" height="26" fill="#fbfbfb" stroke="#e2e2e2" stroke-width="1"/>
<rect x="118.0" y="236.0" width="26" height="26" fill="#fbfbfb" stroke="#e2e2e2" stroke-width="1"/>
<rect x="174.0" y="236.0" width="26" height="26" fill="#fbfbfb" stroke="#e2e2e2" stroke-width="1"/>
<rect x="202.0" y="236.0" width="26" height="26" fill="#fbfbfb" stroke="#e2e2e2" stroke-width="1"/>
<rect x="230.0" y="236.0" width="26" height="26" fill="#fbfbfb" stroke="#e2e2e2" stroke-width="1"/>
<rect x="286.0" y="236.0" width="26" height="26" fill="#fbfbfb" stroke="#e2e2e2" stroke-width="1"/>
<rect x="314.0" y="236.0" width="26" height="26" fill="#f2c14e" stroke="#444444" stroke-width="1.2"/>
<text x="327.0" y="254.0" font-size="13" text-anchor="middle" fill="#222222" font-weight="bold" font-family="sans-serif">1</text>
<rect x="342.0" y="236.0" width="26" height="26" fill="#fbfbfb" stroke="#e2e2e2" stroke-width="1"/>
<rect x="34.0" y="292.0" width="26" height="26" fill="#fbfbfb" stroke="#e2e2e2" stroke-width="1"/>
<rect x="90.0" y="292.0" width="26" height="26" fill="#fbfbfb" stroke="#e2e2e2" stroke-width="1"/>
<rect x="118.0" y="292.0" width="26" height="26" fill="#fbfbfb" stroke="#e2e2e2" stroke-width="1"/>
<rect x="174.0" y="292.0" width="26" height="26" fill="#fbfbfb" stroke="#e2e2e2" stroke-width="1"/>
<rect x="202.0" y="292.0" width="26" height="26" fill="#fbfbfb" stroke="#e2e2e2" stroke-width="1"/>
<rect x="230.0" y="292.0" width="26" height="26" fill="#fbfbfb" stroke="#e2e2e2" stroke-width="1"/>
<rect x="286.0" y="292.0" width="26" height="26" fill="#fbfbfb" stroke="#e2e2e2" stroke-width="1"/>
<rect x="314.0" y="292.0" width="26" height="26" fill="#fbfbfb" stroke="#e2e2e2" stroke-width="1"/>
<rect x="342.0" y="292.0" width="26" height="26" fill="#8fce9f" stroke="#444444" stroke-width="1.2"/>
<text x="355.0" y="310.0" font-size="13" text-anchor="middle" fill="#222222" font-weight="bold" font-family="sans-serif">3</text>
</svg>