<svg viewBox="0 0 660 292" xmlns="http://www.w3.org/2000/svg">
<text x="167.0" y="28.0" font-size="16" text-anchor="middle" fill="#222222" font-weight="bold" font-family="sans-serif">横ラベル h（行スキャン）</text>
<line x1="167.00" y1="86.95" x2="167.00" y2="123.90" stroke="#999999" stroke-width="1.5" stroke-dasharray="5 4"/>
<line x1="135.00" y1="142.38" x2="167.00" y2="123.90" stroke="#999999" stroke-width="1.5" stroke-dasharray="5 4"/>
<line x1="135.00" y1="142.38" x2="135.00" y2="179.33" stroke="#999999" stroke-width="1.5" stroke-dasharray="5 4"/>
<line x1="199.00" y1="142.38" x2="199.00" y2="179.33" stroke="#999999" stroke-width="1.5" stroke-dasharray="5 4"/>
<line x1="103.00" y1="197.80" x2="135.00" y2="179.33" stroke="#999999" stroke-width="1.5" stroke-dasharray="5 4"/>
<line x1="103.00" y1="197.80" x2="103.00" y2="234.75" stroke="#999999" stroke-width="1.5" stroke-dasharray="5 4"/>
<line x1="199.00" y1="179.33" x2="231.00" y2="197.80" stroke="#999999" stroke-width="1.5" stroke-dasharray="5 4"/>
<line x1="231.00" y1="197.80" x2="231.00" y2="234.75" stroke="#999999" stroke-width="1.5" stroke-dasharray="5 4"/>
<line x1="71.00" y1="253.23" x2="103.00" y2="234.75" stroke="#999999" stroke-width="1.5" stroke-dasharray="5 4"/>
<line x1="135.00" y1="253.23" x2="167.00" y2="234.75" stroke="#999999" stroke-width="1.5" stroke-dasharray="5 4"/>
<line x1="167.00" y1="234.75" x2="199.00" y2="253.23" stroke="#999999" stroke-width="1.5" stroke-dasharray="5 4"/>
<line x1="231.00" y1="234.75" x2="263.00" y2="253.23" stroke="#999999" stroke-width="1.5" stroke-dasharray="5 4"/>
<line x1="167.00" y1="123.90" x2="199.00" y2="142.38" stroke="#333333" stroke-width="2.5"/>
<line x1="135.00" y1="179.33" x2="167.00" y2="197.80" stroke="#333333" stroke-width="2.5"/>
<line x1="167.00" y1="197.80" x2="199.00" y2="179.33" stroke="#333333" stroke-width="2.5"/>
<line x1="167.00" y1="197.80" x2="167.00" y2="234.75" stroke="#333333" stroke-width="2.5"/>
<line x1="103.00" y1="234.75" x2="135.00" y2="253.23" stroke="#333333" stroke-width="2.5"/>
<line x1="199.00" y1="253.23" x2="231.00" y2="234.75" stroke="#333333" stroke-width="2.5"/>
<circle cx="167.00" cy="86.95" r="13" fill="#7fb3d5" stroke="#444444" stroke-width="1.2"/>
<text x="167.0" y="92.0" font-size="14" text-anchor="middle" fill="#222222" font-weight="bold" font-family="sans-serif">1</text>
<circle cx="135.00" cy="142.38" r="13" fill="#7fb3d5" stroke="#444444" stroke-width="1.2"/>
<text x="135.0" y="147.4" font-size="14" text-anchor="middle" fill="#222222" font-weight="bold" font-family="sans-serif">3</text>
<circle cx="167.00" cy="123.90" r="13" fill="#7fb3d5" stroke="#444444" stroke-width="1.2"/>
<text x="167.0" y="128.9" font-size="14" text-anchor="middle" fill="#222222" font-weight="bold" font-family="sans-serif">3</text>
<circle cx="199.00" cy="142.38" r="13" fill="#8fce9f" stroke="#444444" stroke-width="1.2"/>
<text x="199.0" y="147.4" font-size="14" text-anchor="middle" fill="#222222" font-weight="bold" font-family="sans-serif">4</text>
<circle cx="103.00" cy="197.80" r="13" fill="#7fb3d5" stroke="#444444" stroke-width="1.2"/>
<text x="103.0" y="202.8" font-size="14" text-anchor="middle" fill="#222222" font-weight="bold" font-family="sans-serif">6</text>
<circle cx="135.00" cy="179.33" r="13" fill="#7fb3d5" stroke="#444444" stroke-width="1.2"/>
<text x="135.0" y="184.3" font-size="14" text-anchor="middle" fill="#222222" font-weight="bold" font-family="sans-serif">6</text>
<circle cx="167.00" cy="197.80" r="13" fill="#e57373" stroke="#444444" stroke-width="1.2"/>
<text x="167.0" y="202.8" font-size="14" text-anchor="middle" fill="#222222" font-weight="bold" font-family="sans-serif">7</text>
<circle cx="199.00" cy="179.33" r="13" fill="#8fce9f" stroke="#444444" stroke-width="1.2"/>
<text x="199.0" y="184.3" font-size="14" text-anchor="middle" fill="#222222" font-weight="bold" font-family="sans-serif">8</text>
<circle cx="231.00" cy="197.80" r="13" fill="#8fce9f" stroke="#444444" stroke-width="1.2"/>
<text x="231.0" y="202.8" font-size="14" text-anchor="middle" fill="#222222" font-weight="bold" font-family="sans-serif">8</text>
<circle cx="71.00" cy="253.23" r="13" fill="#7fb3d5" stroke="#444444" stroke-width="1.2"/>
<text x="71.0" y="258.2" font-size="14" text-anchor="middle" fill="#222222" font-weight="bold" font-family="sans-serif">10</text>
<circle cx="103.00" cy="234.75" r="13" fill="#7fb3d5" stroke="#444444" stroke-width="1.2"/>
<text x="103.0" y="239.8" font-size="14" text-anchor="middle" fill="#222222" font-weight="bold" font-family="sans-serif">10</text>
<circle cx="135.00" cy="253.23" r="13" fill="#f2c14e" stroke="#444444" stroke-width="1.2"/>
<text x="135.0" y="258.2" font-size="14" text-anchor="middle" fill="#222222" font-weight="bold" font-family="sans-serif">11</text>
<circle cx="167.00" cy="234.75" r="13" fill="#f2c14e" stroke="#444444" stroke-width="1.2"/>
<text x="167.0" y="239.8" font-size="14" text-anchor="middle" fill="#222222" font-weight="bold" font-family="sans-serif">11</text>
<circle cx="199.00" cy="253.23" r="13" fill="#f2c14e" stroke="#444444" stroke-width="1.2"/>
<text x="199.0" y="258.2" font-size="14" text-anchor="middle" fill="#222222" font-weight="bold" font-family="sans-serif">11</text>
<circle cx="231.00" cy="234.75" r="13" fill="#8fce9f" stroke="#444444" stroke-width="1.2"/>
<text x="231.0" y="239.8" font-size="14" text-anchor="middle" fill="#222222" font-weight="bold" font-family="sans-serif">12</text>
<circle cx="263.00" cy="253.23" r="13" fill="#8fce9f" stroke="#444444" stroke-width="1.2"/>
<text x="263.0" y="258.2" font-size="14" text-anchor="middle" fill="#222222" font-weight="bold" font-family="sans-serif">12</text>
<text x="493.0" y="28.0" font-size="16" text-anchor="middle" fill="#222222" font-weight="bold" font-family="sans-serif">縦ラベル v（列スキャン）</text>
<line x1="493.00" y1="86.95" x2="493.00" y2="123.90" stroke="#999999" stroke-width="1.5" stroke-dasharray="5 4"/>
<line x1="461.00" y1="142.38" x2="493.00" y2="123.90" stroke="#999999" stroke-width="1.5" stroke-dasharray="5 4"/>
<line x1="461.00" y1="142.38" x2="461.00" y2="179.33" stroke="#999999" stroke-width="1.5" stroke-dasharray="5 4"/>
<line x1="525.00" y1="142.38" x2="525.00" y2="179.33" stroke="#999999" stroke-width="1.5" stroke-dasharray="5 4"/>
<line x1="429.00" y1="197.80" x2="461.00" y2="179.33" stroke="#999999" stroke-width="1.5" stroke-dasharray="5 4"/>
<line x1="429.00" y1="197.80" x2="429.00" y2="234.75" stroke="#999999" stroke-width="1.5" stroke-dasharray="5 4"/>
<line x1="525.00" y1="179.33" x2="557.00" y2="197.80" stroke="#999999" stroke-width="1.5" stroke-dasharray="5 4"/>
<line x1="557.00" y1="197.80" x2="557.00" y2="234.75" stroke="#999999" stroke-width="1.5" stroke-dasharray="5 4"/>
<line x1="397.00" y1="253.23" x2="429.00" y2="234.75" stroke="#999999" stroke-width="1.5" stroke-dasharray="5 4"/>
<line x1="461.00" y1="253.23" x2="493.00" y2="234.75" stroke="#999999" stroke-width="1.5" stroke-dasharray="5 4"/>
<line x1="493.00" y1="234.75" x2="525.00" y2="253.23" stroke="#999999" stroke-width="1.5" stroke-dasharray="5 4"/>
<line x1="557.00" y1="234.75" x2="589.00" y2="253.23" stroke="#999999" stroke-width="1.5" stroke-dasharray="5 4"/>
<line x1="493.00" y1="123.90" x2="525.00" y2="142.38" stroke="#333333" stroke-width="2.5"/>
<line x1="461.00" y1="179.33" x2="493.00" y2="197.80" stroke="#333333" stroke-width="2.5"/>
<line x1="493.00" y1="197.80" x2="525.00" y2="179.33" stroke="#333333" stroke-width="2.5"/>
<line x1="493.00" y1="197.80" x2="493.00" y2="234.75" stroke="#333333" stroke-width="2.5"/>
<line x1="429.00" y1="234.75" x2="461.00" y2="253.23" stroke="#333333" stroke-width="2.5"/>
<line x1="525.00" y1="253.23" x2="557.00" y2="234.75" stroke="#333333" stroke-width="2.5"/>
<circle cx="493.00" cy="86.95" r="13" fill="#7fb3d5" stroke="#444444" stroke-width="1.2"/>
<text x="493.0" y="92.0" font-size="14" text-anchor="middle" fill="#222222" font-weight="bold" font-family="sans-serif">1</text>
<circle cx="461.00" cy="142.38" r="13" fill="#7fb3d5" stroke="#444444" stroke-width="1.2"/>
<text x="461.0" y="147.4" font-size="14" text-anchor="middle" fill="#222222" font-weight="bold" font-family="sans-serif">1</text>
<circle cx="493.00" cy="123.90" r="13" fill="#7fb3d5" stroke="#444444" stroke-width="1.2"/>
<text x="493.0" y="128.9" font-size="14" text-anchor="middle" fill="#222222" font-weight="bold" font-family="sans-serif">1</text>
<circle cx="525.00" cy="142.38" r="13" fill="#8fce9f" stroke="#444444" stroke-width="1.2"/>
<text x="525.0" y="147.4" font-size="14" text-anchor="middle" fill="#222222" font-weight="bold" font-family="sans-serif">3</text>
<circle cx="429.00" cy="197.80" r="13" fill="#7fb3d5" stroke="#444444" stroke-width="1.2"/>
<text x="429.0" y="202.8" font-size="14" text-anchor="middle" fill="#222222" font-weight="bold" font-family="sans-serif">1</text>
<circle cx="461.00" cy="179.33" r="13" fill="#7fb3d5" stroke="#444444" stroke-width="1.2"/>
<text x="461.0" y="184.3" font-size="14" text-anchor="middle" fill="#222222" font-weight="bold" font-family="sans-serif">1</text>
<circle cx="493.00" cy="197.80" r="13" fill="#e57373" stroke="#444444" stroke-width="1.2"/>
<text x="493.0" y="202.8" font-size="14" text-anchor="middle" fill="#222222" font-weight="bold" font-family="sans-serif">4</text>
<circle cx="525.00" cy="179.33" r="13" fill="#8fce9f" stroke="#444444" stroke-width="1.2"/>
<text x="525.0" y="184.3" font-size="14" text-anchor="middle" fill="#222222" font-weight="bold" font-family="sans-serif">3</text>
<circle cx="557.00" cy="197.80" r="13" fill="#8fce9f" stroke="#444444" stroke-width="1.2"/>
<text x="557.0" y="202.8" font-size="14" text-anchor="middle" fill="#222222" font-weight="bold" font-family="sans-serif">7</text>
<circle cx="397.00" cy="253.23" r="13" fill="#7fb3d5" stroke="#444444" stroke-width="1.2"/>
<text x="397.0" y="258.2" font-size="14" text-anchor="middle" fill="#222222" font-weight="bold" font-family="sans-serif">1</text>
<circle cx="429.00" cy="234.75" r="13" fill="#7fb3d5" stroke="#444444" stroke-width="1.2"/>
<text x="429.0" y="239.8" font-size="14" text-anchor="middle" fill="#222222" font-weight="bold" font-family="sans-serif">1</text>
<circle cx="461.00" cy="253.23" r="13" fill="#f2c14e" stroke="#444444" stroke-width="1.2"/>
<text x="461.0" y="258.2" font-size="14" text-anchor="middle" fill="#222222" font-weight="bold" font-family="sans-serif">5</text>
<circle cx="493.00" cy="234.75" r="13" fill="#f2c14e" stroke="#444444" stroke-width="1.2"/>
<text x="493.0" y="239.8" font-size="14" text-anchor="middle" fill="#222222" font-weight="bold" font-family="sans-serif">5</text>
<circle cx="525.00" cy="253.23" r="13" fill="#f2c14e" stroke="#444444" stroke-width="1.2"/>
<text x="525.0" y="258.2" font-size="14" text-anchor="middle" fill="#222222" font-weight="bold" font-family="sans-serif">8</text>
<circle cx="557.00" cy="234.75" r="13" fill="#8fce9f" stroke="#444444" stroke-width="1.2"/>
<text x="557.0" y="239.8" font-size="14" text-anchor="middle" fill="#222222" font-weight="bold" font-family="sans-serif">7</text>
<circle cx="589.00" cy="253.23" r="13" fill="#8fce9f" stroke="#444444" stroke-width="1.2"/>
<text x="589.0" y="258.2" font-size="14" text-anchor="middle" fill="#222222" font-weight="bold" font-family="sans-serif">10</text>
</svg>