<svg viewBox="0 0 658 692" xmlns="http://www.w3.org/2000/svg">
<text x="342.0" y="16.0" font-size="14" text-anchor="middle" fill="#222222" font-weight="bold" font-family="sans-serif">横ラベル h →</text>
<text x="14" y="362.0" font-size="14" text-anchor="middle" fill="#222222" font-weight="bold" font-family="sans-serif" transform="rotate(-90 14 362.0)">縦ラベル v ↓</text>
<text x="48.0" y="32.0" font-size="13" text-anchor="middle" fill="#222222" font-family="sans-serif">1</text>
<text x="104.0" y="32.0" font-size="13" text-anchor="middle" fill="#222222" font-family="sans-serif">3</text>
<text x="160.0" y="32.0" font-size="13" text-anchor="middle" fill="#222222" font-family="sans-serif">5</text>
<text x="188.0" y="32.0" font-size="13" text-anchor="middle" fill="#222222" font-family="sans-serif">6</text>
<text x="216.0" y="32.0" font-size="13" text-anchor="middle" fill="#222222" font-family="sans-serif">7</text>
<text x="244.0" y="32.0" font-size="13" text-anchor="middle" fill="#222222" font-family="sans-serif">8</text>
<text x="300.0" y="32.0" font-size="13" text-anchor="middle" fill="#222222" font-family="sans-serif">10</text>
<text x="328.0" y="32.0" font-size="13" text-anchor="middle" fill="#222222" font-family="sans-serif">11</text>
<text x="356.0" y="32.0" font-size="13" text-anchor="middle" fill="#222222" font-family="sans-serif">12</text>
<text x="384.0" y="32.0" font-size="13" text-anchor="middle" fill="#222222" font-family="sans-serif">13</text>
<text x="440.0" y="32.0" font-size="13" text-anchor="middle" fill="#222222" font-family="sans-serif">15</text>
<text x="468.0" y="32.0" font-size="13" text-anchor="middle" fill="#222222" font-family="sans-serif">16</text>
<text x="496.0" y="32.0" font-size="13" text-anchor="middle" fill="#222222" font-family="sans-serif">17</text>
<text x="524.0" y="32.0" font-size="13" text-anchor="middle" fill="#222222" font-family="sans-serif">18</text>
<text x="580.0" y="32.0" font-size="13" text-anchor="middle" fill="#222222" font-family="sans-serif">20</text>
<text x="608.0" y="32.0" font-size="13" text-anchor="middle" fill="#222222" font-family="sans-serif">21</text>
<text x="636.0" y="32.0" font-size="13" text-anchor="middle" fill="#222222" font-family="sans-serif">22</text>
<text x="25.0" y="59.0" font-size="13" text-anchor="middle" fill="#222222" font-family="sans-serif">1</text>
<text x="25.0" y="87.0" font-size="13" text-anchor="middle" fill="#222222" font-family="sans-serif">2</text>
<text x="25.0" y="115.0" font-size="13" text-anchor="middle" fill="#222222" font-family="sans-serif">3</text>
<text x="25.0" y="143.0" font-size="13" text-anchor="middle" fill="#222222" font-family="sans-serif">4</text>
<text x="25.0" y="199.0" font-size="13" text-anchor="middle" fill="#222222" font-family="sans-serif">6</text>
<text x="25.0" y="227.0" font-size="13" text-anchor="middle" fill="#222222" font-family="sans-serif">7</text>
<text x="25.0" y="255.0" font-size="13" text-anchor="middle" fill="#222222" font-family="sans-serif">8</text>
<text x="25.0" y="283.0" font-size="13" text-anchor="middle" fill="#222222" font-family="sans-serif">9</text>
<text x="25.0" y="311.0" font-size="13" text-anchor="middle" fill="#222222" font-family="sans-serif">10</text>
<text x="25.0" y="367.0" font-size="13" text-anchor="middle" fill="#222222" font-family="sans-serif">12</text>
<text x="25.0" y="395.0" font-size="13" text-anchor="middle" fill="#222222" font-family="sans-serif">13</text>
<text x="25.0" y="423.0" font-size="13" text-anchor="middle" fill="#222222" font-family="sans-serif">14</text>
<text x="25.0" y="479.0" font-size="13" text-anchor="middle" fill="#222222" font-family="sans-serif">16</text>
<text x="25.0" y="507.0" font-size="13" text-anchor="middle" fill="#222222" font-family="sans-serif">17</text>
<text x="25.0" y="535.0" font-size="13" text-anchor="middle" fill="#222222" font-family="sans-serif">18</text>
<text x="25.0" y="591.0" font-size="13" text-anchor="middle" fill="#222222" font-family="sans-serif">20</text>
<text x="25.0" y="619.0" font-size="13" text-anchor="middle" fill="#222222" font-family="sans-serif">21</text>
<text x="25.0" y="675.0" font-size="13" text-anchor="middle" fill="#222222" font-family="sans-serif">23</text>
<rect x="34.0" y="40.0" width="26" height="26" fill="#f2c14e" stroke="#444444" stroke-width="1.2"/>
<text x="47.0" y="58.0" font-size="13" text-anchor="middle" fill="#222222" font-weight="bold" font-family="sans-serif">1</text>
<rect x="90.0" y="40.0" width="26" height="26" fill="#f2c14e" stroke="#444444" stroke-width="1.2"/>
<text x="103.0" y="58.0" font-size="13" text-anchor="middle" fill="#222222" font-weight="bold" font-family="sans-serif">1</text>
<rect x="146.0" y="40.0" width="26" height="26" fill="#fbfbfb" stroke="#e2e2e2" stroke-width="1"/>
<rect x="174.0" y="40.0" width="26" height="26" fill="#fbfbfb" stroke="#e2e2e2" stroke-width="1"/>
<rect x="202.0" y="40.0" width="26" height="26" fill="#fbfbfb" stroke="#e2e2e2" stroke-width="1"/>
<rect x="230.0" y="40.0" width="26" height="26" fill="#fbfbfb" stroke="#e2e2e2" stroke-width="1"/>
<rect x="286.0" y="40.0" width="26" height="26" fill="#fbfbfb" stroke="#e2e2e2" stroke-width="1"/>
<rect x="314.0" y="40.0" width="26" height="26" fill="#fbfbfb" stroke="#e2e2e2" stroke-width="1"/>
<rect x="342.0" y="40.0" width="26" height="26" fill="#fbfbfb" stroke="#e2e2e2" stroke-width="1"/>
<rect x="370.0" y="40.0" width="26" height="26" fill="#fbfbfb" stroke="#e2e2e2" stroke-width="1"/>
<rect x="426.0" y="40.0" width="26" height="26" fill="#fbfbfb" stroke="#e2e2e2" stroke-width="1"/>
<rect x="454.0" y="40.0" width="26" height="26" fill="#fbfbfb" stroke="#e2e2e2" stroke-width="1"/>
<rect x="482.0" y="40.0" width="26" height="26" fill="#fbfbfb" stroke="#e2e2e2" stroke-width="1"/>
<rect x="510.0" y="40.0" width="26" height="26" fill="#fbfbfb" stroke="#e2e2e2" stroke-width="1"/>
<rect x="566.0" y="40.0" width="26" height="26" fill="#fbfbfb" stroke="#e2e2e2" stroke-width="1"/>
<rect x="594.0" y="40.0" width="26" height="26" fill="#fbfbfb" stroke="#e2e2e2" stroke-width="1"/>
<rect x="622.0" y="40.0" width="26" height="26" fill="#fbfbfb" stroke="#e2e2e2" stroke-width="1"/>
<rect x="34.0" y="68.0" width="26" height="26" fill="#fbfbfb" stroke="#e2e2e2" stroke-width="1"/>
<rect x="90.0" y="68.0" width="26" height="26" fill="#fbfbfb" stroke="#e2e2e2" stroke-width="1"/>
<rect x="146.0" y="68.0" width="26" height="26" fill="#fbfbfb" stroke="#e2e2e2" stroke-width="1"/>
<rect x="174.0" y="68.0" width="26" height="26" fill="#aab7b8" stroke="#444444" stroke-width="1.2"/>
<text x="187.0" y="86.0" font-size="13" text-anchor="middle" fill="#222222" font-weight="bold" font-family="sans-serif">7</text>
<rect x="202.0" y="68.0" width="26" height="26" fill="#fbfbfb" stroke="#e2e2e2" stroke-width="1"/>
<rect x="230.0" y="68.0" width="26" height="26" fill="#fbfbfb" stroke="#e2e2e2" stroke-width="1"/>
<rect x="286.0" y="68.0" width="26" height="26" fill="#fbfbfb" stroke="#e2e2e2" stroke-width="1"/>
<rect x="314.0" y="68.0" width="26" height="26" fill="#fbfbfb" stroke="#e2e2e2" stroke-width="1"/>
<rect x="342.0" y="68.0" width="26" height="26" fill="#fbfbfb" stroke="#e2e2e2" stroke-width="1"/>
<rect x="370.0" y="68.0" width="26" height="26" fill="#fbfbfb" stroke="#e2e2e2" stroke-width="1"/>
<rect x="426.0" y="68.0" width="26" height="26" fill="#fbfbfb" stroke="#e2e2e2" stroke-width="1"/>
<rect x="454.0" y="68.0" width="26" height="26" fill="#fbfbfb" stroke="#e2e2e2" stroke-width="1"/>
<rect x="482.0" y="68.0" width="26" height="26" fill="#fbfbfb" stroke="#e2e2e2" stroke-width="1"/>
<rect x="510.0" y="68.0" width="26" height="26" fill="#fbfbfb" stroke="#e2e2e2" stroke-width="1"/>
<rect x="566.0" y="68.0" width="26" height="26" fill="#fbfbfb" stroke="#e2e2e2" stroke-width="1"/>
<rect x="594.0" y="68.0" width="26" height="26" fill="#fbfbfb" stroke="#e2e2e2" stroke-width="1"/>
<rect x="622.0" y="68.0" width="26" height="26" fill="#fbfbfb" stroke="#e2e2e2" stroke-width="1"/>
<rect x="34.0" y="96.0" width="26" height="26" fill="#fbfbfb" stroke="#e2e2e2" stroke-width="1"/>
<rect x="90.0" y="96.0" width="26" height="26" fill="#fbfbfb" stroke="#e2e2e2" stroke-width="1"/>
<rect x="146.0" y="96.0" width="26" height="26" fill="#e59866" stroke="#444444" stroke-width="1.2"/>
<text x="159.0" y="114.0" font-size="13" text-anchor="middle" fill="#222222" font-weight="bold" font-family="sans-serif">6</text>
<rect x="174.0" y="96.0" width="26" height="26" fill="#fbfbfb" stroke="#e2e2e2" stroke-width="1"/>
<rect x="202.0" y="96.0" width="26" height="26" fill="#fbfbfb" stroke="#e2e2e2" stroke-width="1"/>
<rect x="230.0" y="96.0" width="26" height="26" fill="#fbfbfb" stroke="#e2e2e2" stroke-width="1"/>
<rect x="286.0" y="96.0" width="26" height="26" fill="#fbfbfb" stroke="#e2e2e2" stroke-width="1"/>
<rect x="314.0" y="96.0" width="26" height="26" fill="#fbfbfb" stroke="#e2e2e2" stroke-width="1"/>
<rect x="342.0" y="96.0" width="26" height="26" fill="#fbfbfb" stroke="#e2e2e2" stroke-width="1"/>
<rect x="370.0" y="96.0" width="26" height="26" fill="#fbfbfb" stroke="#e2e2e2" stroke-width="1"/>
<rect x="426.0" y="96.0" width="26" height="26" fill="#fbfbfb" stroke="#e2e2e2" stroke-width="1"/>
<rect x="454.0" y="96.0" width="26" height="26" fill="#fbfbfb" stroke="#e2e2e2" stroke-width="1"/>
<rect x="482.0" y="96.0" width="26" height="26" fill="#fbfbfb" stroke="#e2e2e2" stroke-width="1"/>
<rect x="510.0" y="96.0" width="26" height="26" fill="#fbfbfb" stroke="#e2e2e2" stroke-width="1"/>
<rect x="566.0" y="96.0" width="26" height="26" fill="#fbfbfb" stroke="#e2e2e2" stroke-width="1"/>
<rect x="594.0" y="96.0" width="26" height="26" fill="#fbfbfb" stroke="#e2e2e2" stroke-width="1"/>
<rect x="622.0" y="96.0" width="26" height="26" fill="#fbfbfb" stroke="#e2e2e2" stroke-width="1"/>
<rect x="34.0" y="124.0" width="26" height="26" fill="#fbfbfb" stroke="#e2e2e2" stroke-width="1"/>
<rect x="90.0" y="124.0" width="26" height="26" fill="#fbfbfb" stroke="#e2e2e2" stroke-width="1"/>
<rect x="146.0" y="124.0" width="26" height="26" fill="#fbfbfb" stroke="#e2e2e2" stroke-width="1"/>
<rect x="174.0" y="124.0" width="26" height="26" fill="#fbfbfb" stroke="#e2e2e2" stroke-width="1"/>
<rect x="202.0" y="124.0" width="26" height="26" fill="#fbfbfb" stroke="#e2e2e2" stroke-width="1"/>
<rect x="230.0" y="124.0" width="26" height="26" fill="#fbfbfb" stroke="#e2e2e2" stroke-width="1"/>
<rect x="286.0" y="124.0" width="26" height="26" fill="#c39bd3" stroke="#444444" stroke-width="1.2"/>
<text x="299.0" y="142.0" font-size="13" text-anchor="middle" fill="#222222" font-weight="bold" font-family="sans-serif">5</text>
<rect x="314.0" y="124.0" width="26" height="26" fill="#fbfbfb" stroke="#e2e2e2" stroke-width="1"/>
<rect x="342.0" y="124.0" width="26" height="26" fill="#fbfbfb" stroke="#e2e2e2" stroke-width="1"/>
<rect x="370.0" y="124.0" width="26" height="26" fill="#fbfbfb" stroke="#e2e2e2" stroke-width="1"/>
<rect x="426.0" y="124.0" width="26" height="26" fill="#c39bd3" stroke="#444444" stroke-width="1.2"/>
<text x="439.0" y="142.0" font-size="13" text-anchor="middle" fill="#222222" font-weight="bold" font-family="sans-serif">5</text>
<rect x="454.0" y="124.0" width="26" height="26" fill="#fbfbfb" stroke="#e2e2e2" stroke-width="1"/>
<rect x="482.0" y="124.0" width="26" height="26" fill="#fbfbfb" stroke="#e2e2e2" stroke-width="1"/>
<rect x="510.0" y="124.0" width="26" height="26" fill="#fbfbfb" stroke="#e2e2e2" stroke-width="1"/>
<rect x="566.0" y="124.0" width="26" height="26" fill="#c39bd3" stroke="#444444" stroke-width="1.2"/>
<text x="579.0" y="142.0" font-size="13" text-anchor="middle" fill="#222222" font-weight="bold" font-family="sans-serif">5</text>
<rect x="594.0" y="124.0" width="26" height="26" fill="#fbfbfb" stroke="#e2e2e2" stroke-width="1"/>
<rect x="622.0" y="124.0" width="26" height="26" fill="#fbfbfb" stroke="#e2e2e2" stroke-width="1"/>
<rect x="34.0" y="180.0" width="26" height="26" fill="#fbfbfb" stroke="#e2e2e2" stroke-width="1"/>
<rect x="90.0" y="180.0" width="26" height="26" fill="#f2c14e" stroke="#444444" stroke-width="1.2"/>
<text x="103.0" y="198.0" font-size="13" text-anchor="middle" fill="#222222" font-weight="bold" font-family="sans-serif">1</text>
<rect x="146.0" y="180.0" width="26" height="26" fill="#fbfbfb" stroke="#e2e2e2" stroke-width="1"/>
<rect x="174.0" y="180.0" width="26" height="26" fill="#fbfbfb" stroke="#e2e2e2" stroke-width="1"/>
<rect x="202.0" y="180.0" width="26" height="26" fill="#f2c14e" stroke="#444444" stroke-width="1.2"/>
<text x="215.0" y="198.0" font-size="13" text-anchor="middle" fill="#222222" font-weight="bold" font-family="sans-serif">1</text>
<rect x="230.0" y="180.0" width="26" height="26" fill="#fbfbfb" stroke="#e2e2e2" stroke-width="1"/>
<rect x="286.0" y="180.0" width="26" height="26" fill="#fbfbfb" stroke="#e2e2e2" stroke-width="1"/>
<rect x="314.0" y="180.0" width="26" height="26" fill="#fbfbfb" stroke="#e2e2e2" stroke-width="1"/>
<rect x="342.0" y="180.0" width="26" height="26" fill="#fbfbfb" stroke="#e2e2e2" stroke-width="1"/>
<rect x="370.0" y="180.0" width="26" height="26" fill="#fbfbfb" stroke="#e2e2e2" stroke-width="1"/>
<rect x="426.0" y="180.0" width="26" height="26" fill="#fbfbfb" stroke="#e2e2e2" stroke-width="1"/>
<rect x="454.0" y="180.0" width="26" height="26" fill="#fbfbfb" stroke="#e2e2e2" stroke-width="1"/>
<rect x="482.0" y="180.0" width="26" height="26" fill="#fbfbfb" stroke="#e2e2e2" stroke-width="1"/>
<rect x="510.0" y="180.0" width="26" height="26" fill="#fbfbfb" stroke="#e2e2e2" stroke-width="1"/>
<rect x="566.0" y="180.0" width="26" height="26" fill="#fbfbfb" stroke="#e2e2e2" stroke-width="1"/>
<rect x="594.0" y="180.0" width="26" height="26" fill="#fbfbfb" stroke="#e2e2e2" stroke-width="1"/>
<rect x="622.0" y="180.0" width="26" height="26" fill="#fbfbfb" stroke="#e2e2e2" stroke-width="1"/>
<rect x="34.0" y="208.0" width="26" height="26" fill="#fbfbfb" stroke="#e2e2e2" stroke-width="1"/>
<rect x="90.0" y="208.0" width="26" height="26" fill="#fbfbfb" stroke="#e2e2e2" stroke-width="1"/>
<rect x="146.0" y="208.0" width="26" height="26" fill="#fbfbfb" stroke="#e2e2e2" stroke-width="1"/>
<rect x="174.0" y="208.0" width="26" height="26" fill="#fbfbfb" stroke="#e2e2e2" stroke-width="1"/>
<rect x="202.0" y="208.0" width="26" height="26" fill="#fbfbfb" stroke="#e2e2e2" stroke-width="1"/>
<rect x="230.0" y="208.0" width="26" height="26" fill="#fbfbfb" stroke="#e2e2e2" stroke-width="1"/>
<rect x="286.0" y="208.0" width="26" height="26" fill="#fbfbfb" stroke="#e2e2e2" stroke-width="1"/>
<rect x="314.0" y="208.0" width="26" height="26" fill="#ffffff" stroke="#444444" stroke-width="1.2" stroke-dasharray="3 2"/>
<rect x="342.0" y="208.0" width="26" height="26" fill="#fbfbfb" stroke="#e2e2e2" stroke-width="1"/>
<rect x="370.0" y="208.0" width="26" height="26" fill="#fbfbfb" stroke="#e2e2e2" stroke-width="1"/>
<rect x="426.0" y="208.0" width="26" height="26" fill="#fbfbfb" stroke="#e2e2e2" stroke-width="1"/>
<rect x="454.0" y="208.0" width="26" height="26" fill="#fbfbfb" stroke="#e2e2e2" stroke-width="1"/>
<rect x="482.0" y="208.0" width="26" height="26" fill="#fbfbfb" stroke="#e2e2e2" stroke-width="1"/>
<rect x="510.0" y="208.0" width="26" height="26" fill="#fbfbfb" stroke="#e2e2e2" stroke-width="1"/>
<rect x="566.0" y="208.0" width="26" height="26" fill="#fbfbfb" stroke="#e2e2e2" stroke-width="1"/>
<rect x="594.0" y="208.0" width="26" height="26" fill="#fbfbfb" stroke="#e2e2e2" stroke-width="1"/>
<rect x="622.0" y="208.0" width="26" height="26" fill="#fbfbfb" stroke="#e2e2e2" stroke-width="1"/>
<rect x="34.0" y="236.0" width="26" height="26" fill="#fbfbfb" stroke="#e2e2e2" stroke-width="1"/>
<rect x="90.0" y="236.0" width="26" height="26" fill="#fbfbfb" stroke="#e2e2e2" stroke-width="1"/>
<rect x="146.0" y="236.0" width="26" height="26" fill="#fbfbfb" stroke="#e2e2e2" stroke-width="1"/>
<rect x="174.0" y="236.0" width="26" height="26" fill="#fbfbfb" stroke="#e2e2e2" stroke-width="1"/>
<rect x="202.0" y="236.0" width="26" height="26" fill="#fbfbfb" stroke="#e2e2e2" stroke-width="1"/>
<rect x="230.0" y="236.0" width="26" height="26" fill="#fbfbfb" stroke="#e2e2e2" stroke-width="1"/>
<rect x="286.0" y="236.0" width="26" height="26" fill="#c39bd3" stroke="#444444" stroke-width="1.2"/>
<text x="299.0" y="254.0" font-size="13" text-anchor="middle" fill="#222222" font-weight="bold" font-family="sans-serif">5</text>
<rect x="314.0" y="236.0" width="26" height="26" fill="#fbfbfb" stroke="#e2e2e2" stroke-width="1"/>
<rect x="342.0" y="236.0" width="26" height="26" fill="#fbfbfb" stroke="#e2e2e2" stroke-width="1"/>
<rect x="370.0" y="236.0" width="26" height="26" fill="#fbfbfb" stroke="#e2e2e2" stroke-width="1"/>
<rect x="426.0" y="236.0" width="26" height="26" fill="#fbfbfb" stroke="#e2e2e2" stroke-width="1"/>
<rect x="454.0" y="236.0" width="26" height="26" fill="#fbfbfb" stroke="#e2e2e2" stroke-width="1"/>
<rect x="482.0" y="236.0" width="26" height="26" fill="#fbfbfb" stroke="#e2e2e2" stroke-width="1"/>
<rect x="510.0" y="236.0" width="26" height="26" fill="#fbfbfb" stroke="#e2e2e2" stroke-width="1"/>
<rect x="566.0" y="236.0" width="26" height="26" fill="#fbfbfb" stroke="#e2e2e2" stroke-width="1"/>
<rect x="594.0" y="236.0" width="26" height="26" fill="#fbfbfb" stroke="#e2e2e2" stroke-width="1"/>
<rect x="622.0" y="236.0" width="26" height="26" fill="#fbfbfb" stroke="#e2e2e2" stroke-width="1"/>
<rect x="34.0" y="264.0" width="26" height="26" fill="#fbfbfb" stroke="#e2e2e2" stroke-width="1"/>
<rect x="90.0" y="264.0" width="26" height="26" fill="#fbfbfb" stroke="#e2e2e2" stroke-width="1"/>
<rect x="146.0" y="264.0" width="26" height="26" fill="#fbfbfb" stroke="#e2e2e2" stroke-width="1"/>
<rect x="174.0" y="264.0" width="26" height="26" fill="#fbfbfb" stroke="#e2e2e2" stroke-width="1"/>
<rect x="202.0" y="264.0" width="26" height="26" fill="#fbfbfb" stroke="#e2e2e2" stroke-width="1"/>
<rect x="230.0" y="264.0" width="26" height="26" fill="#fbfbfb" stroke="#e2e2e2" stroke-width="1"/>
<rect x="286.0" y="264.0" width="26" height="26" fill="#fbfbfb" stroke="#e2e2e2" stroke-width="1"/>
<rect x="314.0" y="264.0" width="26" height="26" fill="#fbfbfb" stroke="#e2e2e2" stroke-width="1"/>
<rect x="342.0" y="264.0" width="26" height="26" fill="#fbfbfb" stroke="#e2e2e2" stroke-width="1"/>
<rect x="370.0" y="264.0" width="26" height="26" fill="#fbfbfb" stroke="#e2e2e2" stroke-width="1"/>
<rect x="426.0" y="264.0" width="26" height="26" fill="#fbfbfb" stroke="#e2e2e2" stroke-width="1"/>
<rect x="454.0" y="264.0" width="26" height="26" fill="#e57373" stroke="#444444" stroke-width="1.2"/>
<text x="467.0" y="282.0" font-size="13" text-anchor="middle" fill="#222222" font-weight="bold" font-family="sans-serif">4</text>
<rect x="482.0" y="264.0" width="26" height="26" fill="#fbfbfb" stroke="#e2e2e2" stroke-width="1"/>
<rect x="510.0" y="264.0" width="26" height="26" fill="#fbfbfb" stroke="#e2e2e2" stroke-width="1"/>
<rect x="566.0" y="264.0" width="26" height="26" fill="#fbfbfb" stroke="#e2e2e2" stroke-width="1"/>
<rect x="594.0" y="264.0" width="26" height="26" fill="#fbfbfb" stroke="#e2e2e2" stroke-width="1"/>
<rect x="622.0" y="264.0" width="26" height="26" fill="#fbfbfb" stroke="#e2e2e2" stroke-width="1"/>
<rect x="34.0" y="292.0" width="26" height="26" fill="#fbfbfb" stroke="#e2e2e2" stroke-width="1"/>
<rect x="90.0" y="292.0" width="26" height="26" fill="#fbfbfb" stroke="#e2e2e2" stroke-width="1"/>
<rect x="146.0" y="292.0" width="26" height="26" fill="#fbfbfb" stroke="#e2e2e2" stroke-width="1"/>
<rect x="174.0" y="292.0" width="26" height="26" fill="#fbfbfb" stroke="#e2e2e2" stroke-width="1"/>
<rect x="202.0" y="292.0" width="26" height="26" fill="#fbfbfb" stroke="#e2e2e2" stroke-width="1"/>
<rect x="230.0" y="292.0" width="26" height="26" fill="#fbfbfb" stroke="#e2e2e2" stroke-width="1"/>
<rect x="286.0" y="292.0" width="26" height="26" fill="#fbfbfb" stroke="#e2e2e2" stroke-width="1"/>
<rect x="314.0" y="292.0" width="26" height="26" fill="#fbfbfb" stroke="#e2e2e2" stroke-width="1"/>
<rect x="342.0" y="292.0" width="26" height="26" fill="#fbfbfb" stroke="#e2e2e2" stroke-width="1"/>
<rect x="370.0" y="292.0" width="26" height="26" fill="#fbfbfb" stroke="#e2e2e2" stroke-width="1"/>
<rect x="426.0" y="292.0" width="26" height="26" fill="#c39bd3" stroke="#444444" stroke-width="1.2"/>
<text x="439.0" y="310.0" font-size="13" text-anchor="middle" fill="#222222" font-weight="bold" font-family="sans-serif">5</text>
<rect x="454.0" y="292.0" width="26" height="26" fill="#fbfbfb" stroke="#e2e2e2" stroke-width="1"/>
<rect x="482.0" y="292.0" width="26" height="26" fill="#fbfbfb" stroke="#e2e2e2" stroke-width="1"/>
<rect x="510.0" y="292.0" width="26" height="26" fill="#fbfbfb" stroke="#e2e2e2" stroke-width="1"/>
<rect x="566.0" y="292.0" width="26" height="26" fill="#c39bd3" stroke="#444444" stroke-width="1.2"/>
<text x="579.0" y="310.0" font-size="13" text-anchor="middle" fill="#222222" font-weight="bold" font-family="sans-serif">5</text>
<rect x="594.0" y="292.0" width="26" height="26" fill="#fbfbfb" stroke="#e2e2e2" stroke-width="1"/>
<rect x="622.0" y="292.0" width="26" height="26" fill="#fbfbfb" stroke="#e2e2e2" stroke-width="1"/>
<rect x="34.0" y="348.0" width="26" height="26" fill="#fbfbfb" stroke="#e2e2e2" stroke-width="1"/>
<rect x="90.0" y="348.0" width="26" height="26" fill="#fbfbfb" stroke="#e2e2e2" stroke-width="1"/>
<rect x="146.0" y="348.0" width="26" height="26" fill="#fbfbfb" stroke="#e2e2e2" stroke-width="1"/>
<rect x="174.0" y="348.0" width="26" height="26" fill="#fbfbfb" stroke="#e2e2e2" stroke-width="1"/>
<rect x="202.0" y="348.0" width="26" height="26" fill="#fbfbfb" stroke="#e2e2e2" stroke-width="1"/>
<rect x="230.0" y="348.0" width="26" height="26" fill="#7fb3d5" stroke="#444444" stroke-width="1.2"/>
<text x="243.0" y="366.0" font-size="13" text-anchor="middle" fill="#222222" font-weight="bold" font-family="sans-serif">2</text>
<rect x="286.0" y="348.0" width="26" height="26" fill="#fbfbfb" stroke="#e2e2e2" stroke-width="1"/>
<rect x="314.0" y="348.0" width="26" height="26" fill="#fbfbfb" stroke="#e2e2e2" stroke-width="1"/>
<rect x="342.0" y="348.0" width="26" height="26" fill="#fbfbfb" stroke="#e2e2e2" stroke-width="1"/>
<rect x="370.0" y="348.0" width="26" height="26" fill="#7fb3d5" stroke="#444444" stroke-width="1.2"/>
<text x="383.0" y="366.0" font-size="13" text-anchor="middle" fill="#222222" font-weight="bold" font-family="sans-serif">2</text>
<rect x="426.0" y="348.0" width="26" height="26" fill="#fbfbfb" stroke="#e2e2e2" stroke-width="1"/>
<rect x="454.0" y="348.0" width="26" height="26" fill="#fbfbfb" stroke="#e2e2e2" stroke-width="1"/>
<rect x="482.0" y="348.0" width="26" height="26" fill="#fbfbfb" stroke="#e2e2e2" stroke-width="1"/>
<rect x="510.0" y="348.0" width="26" height="26" fill="#fbfbfb" stroke="#e2e2e2" stroke-width="1"/>
<rect x="566.0" y="348.0" width="26" height="26" fill="#fbfbfb" stroke="#e2e2e2" stroke-width="1"/>
<rect x="594.0" y="348.0" width="26" height="26" fill="#fbfbfb" stroke="#e2e2e2" stroke-width="1"/>
<rect x="622.0" y="348.0" width="26" height="26" fill="#fbfbfb" stroke="#e2e2e2" stroke-width="1"/>
<rect x="34.0" y="376.0" width="26" height="26" fill="#fbfbfb" stroke="#e2e2e2" stroke-width="1"/>
<rect x="90.0" y="376.0" width="26" height="26" fill="#fbfbfb" stroke="#e2e2e2" stroke-width="1"/>
<rect x="146.0" y="376.0" width="26" height="26" fill="#fbfbfb" stroke="#e2e2e2" stroke-width="1"/>
<rect x="174.0" y="376.0" width="26" height="26" fill="#fbfbfb" stroke="#e2e2e2" stroke-width="1"/>
<rect x="202.0" y="376.0" width="26" height="26" fill="#fbfbfb" stroke="#e2e2e2" stroke-width="1"/>
<rect x="230.0" y="376.0" width="26" height="26" fill="#fbfbfb" stroke="#e2e2e2" stroke-width="1"/>
<rect x="286.0" y="376.0" width="26" height="26" fill="#fbfbfb" stroke="#e2e2e2" stroke-width="1"/>
<rect x="314.0" y="376.0" width="26" height="26" fill="#fbfbfb" stroke="#e2e2e2" stroke-width="1"/>
<rect x="342.0" y="376.0" width="26" height="26" fill="#8fce9f" stroke="#444444" stroke-width="1.2"/>
<text x="355.0" y="394.0" font-size="13" text-anchor="middle" fill="#222222" font-weight="bold" font-family="sans-serif">3</text>
<rect x="370.0" y="376.0" width="26" height="26" fill="#fbfbfb" stroke="#e2e2e2" stroke-width="1"/>
<rect x="426.0" y="376.0" width="26" height="26" fill="#fbfbfb" stroke="#e2e2e2" stroke-width="1"/>
<rect x="454.0" y="376.0" width="26" height="26" fill="#fbfbfb" stroke="#e2e2e2" stroke-width="1"/>
<rect x="482.0" y="376.0" width="26" height="26" fill="#8fce9f" stroke="#444444" stroke-width="1.2"/>
<text x="495.0" y="394.0" font-size="13" text-anchor="middle" fill="#222222" font-weight="bold" font-family="sans-serif">3</text>
<rect x="510.0" y="376.0" width="26" height="26" fill="#fbfbfb" stroke="#e2e2e2" stroke-width="1"/>
<rect x="566.0" y="376.0" width="26" height="26" fill="#fbfbfb" stroke="#e2e2e2" stroke-width="1"/>
<rect x="594.0" y="376.0" width="26" height="26" fill="#fbfbfb" stroke="#e2e2e2" stroke-width="1"/>
<rect x="622.0" y="376.0" width="26" height="26" fill="#fbfbfb" stroke="#e2e2e2" stroke-width="1"/>
<rect x="34.0" y="404.0" width="26" height="26" fill="#fbfbfb" stroke="#e2e2e2" stroke-width="1"/>
<rect x="90.0" y="404.0" width="26" height="26" fill="#fbfbfb" stroke="#e2e2e2" stroke-width="1"/>
<rect x="146.0" y="404.0" width="26" height="26" fill="#fbfbfb" stroke="#e2e2e2" stroke-width="1"/>
<rect x="174.0" y="404.0" width="26" height="26" fill="#fbfbfb" stroke="#e2e2e2" stroke-width="1"/>
<rect x="202.0" y="404.0" width="26" height="26" fill="#fbfbfb" stroke="#e2e2e2" stroke-width="1"/>
<rect x="230.0" y="404.0" width="26" height="26" fill="#fbfbfb" stroke="#e2e2e2" stroke-width="1"/>
<rect x="286.0" y="404.0" width="26" height="26" fill="#fbfbfb" stroke="#e2e2e2" stroke-width="1"/>
<rect x="314.0" y="404.0" width="26" height="26" fill="#fbfbfb" stroke="#e2e2e2" stroke-width="1"/>
<rect x="342.0" y="404.0" width="26" height="26" fill="#fbfbfb" stroke="#e2e2e2" stroke-width="1"/>
<rect x="370.0" y="404.0" width="26" height="26" fill="#fbfbfb" stroke="#e2e2e2" stroke-width="1"/>
<rect x="426.0" y="404.0" width="26" height="26" fill="#fbfbfb" stroke="#e2e2e2" stroke-width="1"/>
<rect x="454.0" y="404.0" width="26" height="26" fill="#e57373" stroke="#444444" stroke-width="1.2"/>
<text x="467.0" y="422.0" font-size="13" text-anchor="middle" fill="#222222" font-weight="bold" font-family="sans-serif">4</text>
<rect x="482.0" y="404.0" width="26" height="26" fill="#fbfbfb" stroke="#e2e2e2" stroke-width="1"/>
<rect x="510.0" y="404.0" width="26" height="26" fill="#fbfbfb" stroke="#e2e2e2" stroke-width="1"/>
<rect x="566.0" y="404.0" width="26" height="26" fill="#fbfbfb" stroke="#e2e2e2" stroke-width="1"/>
<rect x="594.0" y="404.0" width="26" height="26" fill="#e57373" stroke="#444444" stroke-width="1.2"/>
<text x="607.0" y="422.0" font-size="13" text-anchor="middle" fill="#222222" font-weight="bold" font-family="sans-serif">4</text>
<rect x="622.0" y="404.0" width="26" height="26" fill="#fbfbfb" stroke="#e2e2e2" stroke-width="1"/>
<rect x="34.0" y="460.0" width="26" height="26" fill="#fbfbfb" stroke="#e2e2e2" stroke-width="1"/>
<rect x="90.0" y="460.0" width="26" height="26" fill="#fbfbfb" stroke="#e2e2e2" stroke-width="1"/>
<rect x="146.0" y="460.0" width="26" height="26" fill="#fbfbfb" stroke="#e2e2e2" stroke-width="1"/>
<rect x="174.0" y="460.0" width="26" height="26" fill="#fbfbfb" stroke="#e2e2e2" stroke-width="1"/>
<rect x="202.0" y="460.0" width="26" height="26" fill="#fbfbfb" stroke="#e2e2e2" stroke-width="1"/>
<rect x="230.0" y="460.0" width="26" height="26" fill="#fbfbfb" stroke="#e2e2e2" stroke-width="1"/>
<rect x="286.0" y="460.0" width="26" height="26" fill="#fbfbfb" stroke="#e2e2e2" stroke-width="1"/>
<rect x="314.0" y="460.0" width="26" height="26" fill="#fbfbfb" stroke="#e2e2e2" stroke-width="1"/>
<rect x="342.0" y="460.0" width="26" height="26" fill="#fbfbfb" stroke="#e2e2e2" stroke-width="1"/>
<rect x="370.0" y="460.0" width="26" height="26" fill="#7fb3d5" stroke="#444444" stroke-width="1.2"/>
<text x="383.0" y="478.0" font-size="13" text-anchor="middle" fill="#222222" font-weight="bold" font-family="sans-serif">2</text>
<rect x="426.0" y="460.0" width="26" height="26" fill="#fbfbfb" stroke="#e2e2e2" stroke-width="1"/>
<rect x="454.0" y="460.0" width="26" height="26" fill="#fbfbfb" stroke="#e2e2e2" stroke-width="1"/>
<rect x="482.0" y="460.0" width="26" height="26" fill="#fbfbfb" stroke="#e2e2e2" stroke-width="1"/>
<rect x="510.0" y="460.0" width="26" height="26" fill="#7fb3d5" stroke="#444444" stroke-width="1.2"/>
<text x="523.0" y="478.0" font-size="13" text-anchor="middle" fill="#222222" font-weight="bold" font-family="sans-serif">2</text>
<rect x="566.0" y="460.0" width="26" height="26" fill="#fbfbfb" stroke="#e2e2e2" stroke-width="1"/>
<rect x="594.0" y="460.0" width="26" height="26" fill="#fbfbfb" stroke="#e2e2e2" stroke-width="1"/>
<rect x="622.0" y="460.0" width="26" height="26" fill="#fbfbfb" stroke="#e2e2e2" stroke-width="1"/>
<rect x="34.0" y="488.0" width="26" height="26" fill="#fbfbfb" stroke="#e2e2e2" stroke-width="1"/>
<rect x="90.0" y="488.0" width="26" height="26" fill="#fbfbfb" stroke="#e2e2e2" stroke-width="1"/>
<rect x="146.0" y="488.0" width="26" height="26" fill="#fbfbfb" stroke="#e2e2e2" stroke-width="1"/>
<rect x="174.0" y="488.0" width="26" height="26" fill="#fbfbfb" stroke="#e2e2e2" stroke-width="1"/>
<rect x="202.0" y="488.0" width="26" height="26" fill="#fbfbfb" stroke="#e2e2e2" stroke-width="1"/>
<rect x="230.0" y="488.0" width="26" height="26" fill="#fbfbfb" stroke="#e2e2e2" stroke-width="1"/>
<rect x="286.0" y="488.0" width="26" height="26" fill="#fbfbfb" stroke="#e2e2e2" stroke-width="1"/>
<rect x="314.0" y="488.0" width="26" height="26" fill="#fbfbfb" stroke="#e2e2e2" stroke-width="1"/>
<rect x="342.0" y="488.0" width="26" height="26" fill="#fbfbfb" stroke="#e2e2e2" stroke-width="1"/>
<rect x="370.0" y="488.0" width="26" height="26" fill="#fbfbfb" stroke="#e2e2e2" stroke-width="1"/>
<rect x="426.0" y="488.0" width="26" height="26" fill="#fbfbfb" stroke="#e2e2e2" stroke-width="1"/>
<rect x="454.0" y="488.0" width="26" height="26" fill="#fbfbfb" stroke="#e2e2e2" stroke-width="1"/>
<rect x="482.0" y="488.0" width="26" height="26" fill="#8fce9f" stroke="#444444" stroke-width="1.2"/>
<text x="495.0" y="506.0" font-size="13" text-anchor="middle" fill="#222222" font-weight="bold" font-family="sans-serif">3</text>
<rect x="510.0" y="488.0" width="26" height="26" fill="#fbfbfb" stroke="#e2e2e2" stroke-width="1"/>
<rect x="566.0" y="488.0" width="26" height="26" fill="#fbfbfb" stroke="#e2e2e2" stroke-width="1"/>
<rect x="594.0" y="488.0" width="26" height="26" fill="#fbfbfb" stroke="#e2e2e2" stroke-width="1"/>
<rect x="622.0" y="488.0" width="26" height="26" fill="#8fce9f" stroke="#444444" stroke-width="1.2"/>
<text x="635.0" y="506.0" font-size="13" text-anchor="middle" fill="#222222" font-weight="bold" font-family="sans-serif">3</text>
<rect x="34.0" y="516.0" width="26" height="26" fill="#fbfbfb" stroke="#e2e2e2" stroke-width="1"/>
<rect x="90.0" y="516.0" width="26" height="26" fill="#fbfbfb" stroke="#e2e2e2" stroke-width="1"/>
<rect x="146.0" y="516.0" width="26" height="26" fill="#fbfbfb" stroke="#e2e2e2" stroke-width="1"/>
<rect x="174.0" y="516.0" width="26" height="26" fill="#fbfbfb" stroke="#e2e2e2" stroke-width="1"/>
<rect x="202.0" y="516.0" width="26" height="26" fill="#fbfbfb" stroke="#e2e2e2" stroke-width="1"/>
<rect x="230.0" y="516.0" width="26" height="26" fill="#fbfbfb" stroke="#e2e2e2" stroke-width="1"/>
<rect x="286.0" y="516.0" width="26" height="26" fill="#fbfbfb" stroke="#e2e2e2" stroke-width="1"/>
<rect x="314.0" y="516.0" width="26" height="26" fill="#fbfbfb" stroke="#e2e2e2" stroke-width="1"/>
<rect x="342.0" y="516.0" width="26" height="26" fill="#fbfbfb" stroke="#e2e2e2" stroke-width="1"/>
<rect x="370.0" y="516.0" width="26" height="26" fill="#fbfbfb" stroke="#e2e2e2" stroke-width="1"/>
<rect x="426.0" y="516.0" width="26" height="26" fill="#fbfbfb" stroke="#e2e2e2" stroke-width="1"/>
<rect x="454.0" y="516.0" width="26" height="26" fill="#fbfbfb" stroke="#e2e2e2" stroke-width="1"/>
<rect x="482.0" y="516.0" width="26" height="26" fill="#fbfbfb" stroke="#e2e2e2" stroke-width="1"/>
<rect x="510.0" y="516.0" width="26" height="26" fill="#fbfbfb" stroke="#e2e2e2" stroke-width="1"/>
<rect x="566.0" y="516.0" width="26" height="26" fill="#fbfbfb" stroke="#e2e2e2" stroke-width="1"/>
<rect x="594.0" y="516.0" width="26" height="26" fill="#e57373" stroke="#444444" stroke-width="1.2"/>
<text x="607.0" y="534.0" font-size="13" text-anchor="middle" fill="#222222" font-weight="bold" font-family="sans-serif">4</text>
<rect x="622.0" y="516.0" width="26" height="26" fill="#fbfbfb" stroke="#e2e2e2" stroke-width="1"/>
<rect x="34.0" y="572.0" width="26" height="26" fill="#fbfbfb" stroke="#e2e2e2" stroke-width="1"/>
<rect x="90.0" y="572.0" width="26" height="26" fill="#fbfbfb" stroke="#e2e2e2" stroke-width="1"/>
<rect x="146.0" y="572.0" width="26" height="26" fill="#fbfbfb" stroke="#e2e2e2" stroke-width="1"/>
<rect x="174.0" y="572.0" width="26" height="26" fill="#fbfbfb" stroke="#e2e2e2" stroke-width="1"/>
<rect x="202.0" y="572.0" width="26" height="26" fill="#fbfbfb" stroke="#e2e2e2" stroke-width="1"/>
<rect x="230.0" y="572.0" width="26" height="26" fill="#fbfbfb" stroke="#e2e2e2" stroke-width="1"/>
<rect x="286.0" y="572.0" width="26" height="26" fill="#fbfbfb" stroke="#e2e2e2" stroke-width="1"/>
<rect x="314.0" y="572.0" width="26" height="26" fill="#fbfbfb" stroke="#e2e2e2" stroke-width="1"/>
<rect x="342.0" y="572.0" width="26" height="26" fill="#fbfbfb" stroke="#e2e2e2" stroke-width="1"/>
<rect x="370.0" y="572.0" width="26" height="26" fill="#fbfbfb" stroke="#e2e2e2" stroke-width="1"/>
<rect x="426.0" y="572.0" width="26" height="26" fill="#fbfbfb" stroke="#e2e2e2" stroke-width="1"/>
<rect x="454.0" y="572.0" width="26" height="26" fill="#fbfbfb" stroke="#e2e2e2" stroke-width="1"/>
<rect x="482.0" y="572.0" width="26" height="26" fill="#fbfbfb" stroke="#e2e2e2" stroke-width="1"/>
<rect x="510.0" y="572.0" width="26" height="26" fill="#7fb3d5" stroke="#444444" stroke-width="1.2"/>
<text x="523.0" y="590.0" font-size="13" text-anchor="middle" fill="#222222" font-weight="bold" font-family="sans-serif">2</text>
<rect x="566.0" y="572.0" width="26" height="26" fill="#fbfbfb" stroke="#e2e2e2" stroke-width="1"/>
<rect x="594.0" y="572.0" width="26" height="26" fill="#fbfbfb" stroke="#e2e2e2" stroke-width="1"/>
<rect x="622.0" y="572.0" width="26" height="26" fill="#fbfbfb" stroke="#e2e2e2" stroke-width="1"/>
<rect x="34.0" y="600.0" width="26" height="26" fill="#fbfbfb" stroke="#e2e2e2" stroke-width="1"/>
<rect x="90.0" y="600.0" width="26" height="26" fill="#fbfbfb" stroke="#e2e2e2" stroke-width="1"/>
<rect x="146.0" y="600.0" width="26" height="26" fill="#fbfbfb" stroke="#e2e2e2" stroke-width="1"/>
<rect x="174.0" y="600.0" width="26" height="26" fill="#fbfbfb" stroke="#e2e2e2" stroke-width="1"/>
<rect x="202.0" y="600.0" width="26" height="26" fill="#fbfbfb" stroke="#e2e2e2" stroke-width="1"/>
<rect x="230.0" y="600.0" width="26" height="26" fill="#fbfbfb" stroke="#e2e2e2" stroke-width="1"/>
<rect x="286.0" y="600.0" width="26" height="26" fill="#fbfbfb" stroke="#e2e2e2" stroke-width="1"/>
<rect x="314.0" y="600.0" width="26" height="26" fill="#fbfbfb" stroke="#e2e2e2" stroke-width="1"/>
<rect x="342.0" y="600.0" width="26" height="26" fill="#fbfbfb" stroke="#e2e2e2" stroke-width="1"/>
<rect x="370.0" y="600.0" width="26" height="26" fill="#fbfbfb" stroke="#e2e2e2" stroke-width="1"/>
<rect x="426.0" y="600.0" width="26" height="26" fill="#fbfbfb" stroke="#e2e2e2" stroke-width="1"/>
<rect x="454.0" y="600.0" width="26" height="26" fill="#fbfbfb" stroke="#e2e2e2" stroke-width="1"/>
<rect x="482.0" y="600.0" width="26" height="26" fill="#fbfbfb" stroke="#e2e2e2" stroke-width="1"/>
<rect x="510.0" y="600.0" width="26" height="26" fill="#fbfbfb" stroke="#e2e2e2" stroke-width="1"/>
<rect x="566.0" y="600.0" width="26" height="26" fill="#fbfbfb" stroke="#e2e2e2" stroke-width="1"/>
<rect x="594.0" y="600.0" width="26" height="26" fill="#fbfbfb" stroke="#e2e2e2" stroke-width="1"/>
<rect x="622.0" y="600.0" width="26" height="26" fill="#8fce9f" stroke="#444444" stroke-width="1.2"/>
<text x="635.0" y="618.0" font-size="13" text-anchor="middle" fill="#222222" font-weight="bold" font-family="sans-serif">3</text>
<rect x="34.0" y="656.0" width="26" height="26" fill="#fbfbfb" stroke="#e2e2e2" stroke-width="1"/>
<rect x="90.0" y="656.0" width="26" height="26" fill="#fbfbfb" stroke="#e2e2e2" stroke-width="1"/>
<rect x="146.0" y="656.0" width="26" height="26" fill="#fbfbfb" stroke="#e2e2e2" stroke-width="1"/>
<rect x="174.0" y="656.0" width="26" height="26" fill="#fbfbfb" stroke="#e2e2e2" stroke-width="1"/>
<rect x="202.0" y="656.0" width="26" height="26" fill="#fbfbfb" stroke="#e2e2e2" stroke-width="1"/>
<rect x="230.0" y="656.0" width="26" height="26" fill="#fbfbfb" stroke="#e2e2e2" stroke-width="1"/>
<rect x="286.0" y="656.0" width="26" height="26" fill="#fbfbfb" stroke="#e2e2e2" stroke-width="1"/>
<rect x="314.0" y="656.0" width="26" height="26" fill="#fbfbfb" stroke="#e2e2e2" stroke-width="1"/>
<rect x="342.0" y="656.0" width="26" height="26" fill="#fbfbfb" stroke="#e2e2e2" stroke-width="1"/>
<rect x="370.0" y="656.0" width="26" height="26" fill="#fbfbfb" stroke="#e2e2e2" stroke-width="1"/>
<rect x="426.0" y="656.0" width="26" height="26" fill="#fbfbfb" stroke="#e2e2e2" stroke-width="1"/>
<rect x="454.0" y="656.0" width="26" height="26" fill="#fbfbfb" stroke="#e2e2e2" stroke-width="1"/>
<rect x="482.0" y="656.0" width="26" height="26" fill="#fbfbfb" stroke="#e2e2e2" stroke-width="1"/>
<rect x="510.0" y="656.0" width="26" height="26" fill="#fbfbfb" stroke="#e2e2e2" stroke-width="1"/>
<rect x="566.0" y="656.0" width="26" height="26" fill="#fbfbfb" stroke="#e2e2e2" stroke-width="1"/>
<rect x="594.0" y="656.0" width="26" height="26" fill="#fbfbfb" stroke="#e2e2e2" stroke-width="1"/>
<rect x="622.0" y="656.0" width="26" height="26" fill="#8fce9f" stroke="#444444" stroke-width="1.2"/>
<text x="635.0" y="674.0" font-size="13" text-anchor="middle" fill="#222222" font-weight="bold" font-family="sans-serif">3</text>
</svg>