<svg viewBox="0 0 1470 514" xmlns="http://www.w3.org/2000/svg">
<text x="255.0" y="28.0" font-size="17" text-anchor="middle" fill="#222222" font-weight="bold" font-family="sans-serif">(1) 地図</text>
<text x="735.0" y="28.0" font-size="17" text-anchor="middle" fill="#222222" font-weight="bold" font-family="sans-serif">(2) 三角形に分割</text>
<text x="1215.0" y="28.0" font-size="17" text-anchor="middle" fill="#222222" font-weight="bold" font-family="sans-serif">(3) ハニカムグラフ</text>
<polygon points="220.00,116.62 290.00,116.62 255.00,56.00" fill="#f2c14e" stroke="#f2c14e" stroke-width="1"/>
<polygon points="185.00,177.24 255.00,177.24 220.00,116.62" fill="#f2c14e" stroke="#f2c14e" stroke-width="1"/>
<polygon points="220.00,116.62 290.00,116.62 255.00,177.24" fill="#f2c14e" stroke="#f2c14e" stroke-width="1"/>
<polygon points="255.00,177.24 325.00,177.24 290.00,116.62" fill="#f2c14e" stroke="#f2c14e" stroke-width="1"/>
<polygon points="150.00,237.87 220.00,237.87 185.00,177.24" fill="#e59866" stroke="#e59866" stroke-width="1"/>
<polygon points="185.00,177.24 255.00,177.24 220.00,237.87" fill="#aab7b8" stroke="#aab7b8" stroke-width="1"/>
<polygon points="220.00,237.87 290.00,237.87 255.00,177.24" fill="#f2c14e" stroke="#f2c14e" stroke-width="1"/>
<polygon points="255.00,177.24 325.00,177.24 290.00,237.87" fill="#f2c14e" stroke="#f2c14e" stroke-width="1"/>
<polygon points="290.00,237.87 360.00,237.87 325.00,177.24" fill="#7fb3d5" stroke="#7fb3d5" stroke-width="1"/>
<polygon points="115.00,298.49 185.00,298.49 150.00,237.87" fill="#c39bd3" stroke="#c39bd3" stroke-width="1"/>
<polygon points="150.00,237.87 220.00,237.87 185.00,298.49" fill="#c39bd3" stroke="#c39bd3" stroke-width="1"/>
<polygon points="185.00,298.49 255.00,298.49 220.00,237.87" fill="#c39bd3" stroke="#c39bd3" stroke-width="1"/>
<polygon points="255.00,298.49 325.00,298.49 290.00,237.87" fill="#8fce9f" stroke="#8fce9f" stroke-width="1"/>
<polygon points="290.00,237.87 360.00,237.87 325.00,298.49" fill="#7fb3d5" stroke="#7fb3d5" stroke-width="1"/>
<polygon points="325.00,298.49 395.00,298.49 360.00,237.87" fill="#7fb3d5" stroke="#7fb3d5" stroke-width="1"/>
<polygon points="80.00,359.11 150.00,359.11 115.00,298.49" fill="#c39bd3" stroke="#c39bd3" stroke-width="1"/>
<polygon points="115.00,298.49 185.00,298.49 150.00,359.11" fill="#c39bd3" stroke="#c39bd3" stroke-width="1"/>
<polygon points="150.00,359.11 220.00,359.11 185.00,298.49" fill="#c39bd3" stroke="#c39bd3" stroke-width="1"/>
<polygon points="185.00,298.49 255.00,298.49 220.00,359.11" fill="#e57373" stroke="#e57373" stroke-width="1"/>
<polygon points="220.00,359.11 290.00,359.11 255.00,298.49" fill="#e57373" stroke="#e57373" stroke-width="1"/>
<polygon points="255.00,298.49 325.00,298.49 290.00,359.11" fill="#8fce9f" stroke="#8fce9f" stroke-width="1"/>
<polygon points="290.00,359.11 360.00,359.11 325.00,298.49" fill="#8fce9f" stroke="#8fce9f" stroke-width="1"/>
<polygon points="325.00,298.49 395.00,298.49 360.00,359.11" fill="#7fb3d5" stroke="#7fb3d5" stroke-width="1"/>
<polygon points="360.00,359.11 430.00,359.11 395.00,298.49" fill="#7fb3d5" stroke="#7fb3d5" stroke-width="1"/>
<polygon points="45.00,419.73 115.00,419.73 80.00,359.11" fill="#c39bd3" stroke="#c39bd3" stroke-width="1"/>
<polygon points="80.00,359.11 150.00,359.11 115.00,419.73" fill="#c39bd3" stroke="#c39bd3" stroke-width="1"/>
<polygon points="115.00,419.73 185.00,419.73 150.00,359.11" fill="#c39bd3" stroke="#c39bd3" stroke-width="1"/>
<polygon points="150.00,359.11 220.00,359.11 185.00,419.73" fill="#c39bd3" stroke="#c39bd3" stroke-width="1"/>
<polygon points="185.00,419.73 255.00,419.73 220.00,359.11" fill="#e57373" stroke="#e57373" stroke-width="1"/>
<polygon points="220.00,359.11 290.00,359.11 255.00,419.73" fill="#e57373" stroke="#e57373" stroke-width="1"/>
<polygon points="255.00,419.73 325.00,419.73 290.00,359.11" fill="#e57373" stroke="#e57373" stroke-width="1"/>
<polygon points="290.00,359.11 360.00,359.11 325.00,419.73" fill="#8fce9f" stroke="#8fce9f" stroke-width="1"/>
<polygon points="325.00,419.73 395.00,419.73 360.00,359.11" fill="#8fce9f" stroke="#8fce9f" stroke-width="1"/>
<polygon points="360.00,359.11 430.00,359.11 395.00,419.73" fill="#8fce9f" stroke="#8fce9f" stroke-width="1"/>
<polygon points="395.00,419.73 465.00,419.73 430.00,359.11" fill="#8fce9f" stroke="#8fce9f" stroke-width="1"/>
<polygon points="220.00,237.87 241.00,237.87 255.00,258.07" fill="#aab7b8" stroke="#aab7b8" stroke-width="1"/>
<polygon points="220.00,237.87 230.50,219.68 241.00,237.87" fill="#aab7b8" stroke="#aab7b8" stroke-width="1"/>
<polygon points="241.00,237.87 290.00,237.87 255.00,258.07" fill="#f2c14e" stroke="#f2c14e" stroke-width="1"/>
<polygon points="290.00,237.87 279.50,256.05 255.00,258.07" fill="#7fb3d5" stroke="#7fb3d5" stroke-width="1"/>
<polygon points="290.00,237.87 300.50,256.05 279.50,256.05" fill="#7fb3d5" stroke="#7fb3d5" stroke-width="1"/>
<polygon points="279.50,256.05 255.00,298.49 255.00,258.07" fill="#8fce9f" stroke="#8fce9f" stroke-width="1"/>
<polygon points="255.00,298.49 244.50,280.30 255.00,258.07" fill="#e57373" stroke="#e57373" stroke-width="1"/>
<polygon points="255.00,298.49 234.00,298.49 244.50,280.30" fill="#e57373" stroke="#e57373" stroke-width="1"/>
<polygon points="244.50,280.30 230.50,256.05 255.00,258.07" fill="#c39bd3" stroke="#c39bd3" stroke-width="1"/>
<polygon points="230.50,256.05 220.00,237.87 255.00,258.07" fill="#e59866" stroke="#e59866" stroke-width="1"/>
<polygon points="220.00,237.87 230.50,256.05 209.50,256.05" fill="#e59866" stroke="#e59866" stroke-width="1"/>
<polygon points="220.00,237.87 209.50,256.05 199.00,237.87" fill="#e59866" stroke="#e59866" stroke-width="1"/>
<line x1="185.00" y1="177.24" x2="255.00" y2="177.24" stroke="#333333" stroke-width="4" stroke-linecap="round"/>
<line x1="185.00" y1="177.24" x2="220.00" y2="237.87" stroke="#333333" stroke-width="4" stroke-linecap="round"/>
<line x1="150.00" y1="237.87" x2="199.00" y2="237.87" stroke="#333333" stroke-width="4" stroke-linecap="round"/>
<line x1="230.50" y1="219.68" x2="255.00" y2="177.24" stroke="#333333" stroke-width="4" stroke-linecap="round"/>
<line x1="290.00" y1="237.87" x2="325.00" y2="177.24" stroke="#333333" stroke-width="4" stroke-linecap="round"/>
<line x1="185.00" y1="298.49" x2="234.00" y2="298.49" stroke="#333333" stroke-width="4" stroke-linecap="round"/>
<line x1="300.50" y1="256.05" x2="325.00" y2="298.49" stroke="#333333" stroke-width="4" stroke-linecap="round"/>
<line x1="185.00" y1="298.49" x2="220.00" y2="359.11" stroke="#333333" stroke-width="4" stroke-linecap="round"/>
<line x1="255.00" y1="298.49" x2="290.00" y2="359.11" stroke="#333333" stroke-width="4" stroke-linecap="round"/>
<line x1="325.00" y1="298.49" x2="360.00" y2="359.11" stroke="#333333" stroke-width="4" stroke-linecap="round"/>
<line x1="360.00" y1="359.11" x2="430.00" y2="359.11" stroke="#333333" stroke-width="4" stroke-linecap="round"/>
<line x1="185.00" y1="419.73" x2="220.00" y2="359.11" stroke="#333333" stroke-width="4" stroke-linecap="round"/>
<line x1="290.00" y1="359.11" x2="325.00" y2="419.73" stroke="#333333" stroke-width="4" stroke-linecap="round"/>
<line x1="230.50" y1="219.68" x2="241.00" y2="237.87" stroke="#333333" stroke-width="4" stroke-linecap="round"/>
<line x1="300.50" y1="256.05" x2="279.50" y2="256.05" stroke="#333333" stroke-width="4" stroke-linecap="round"/>
<line x1="234.00" y1="298.49" x2="244.50" y2="280.30" stroke="#333333" stroke-width="4" stroke-linecap="round"/>
<line x1="230.50" y1="256.05" x2="209.50" y2="256.05" stroke="#333333" stroke-width="4" stroke-linecap="round"/>
<line x1="209.50" y1="256.05" x2="199.00" y2="237.87" stroke="#333333" stroke-width="4" stroke-linecap="round"/>
<line x1="220.00" y1="237.87" x2="255.00" y2="258.07" stroke="#333333" stroke-width="4" stroke-linecap="round"/>
<line x1="241.00" y1="237.87" x2="255.00" y2="258.07" stroke="#333333" stroke-width="4" stroke-linecap="round"/>
<line x1="290.00" y1="237.87" x2="255.00" y2="258.07" stroke="#333333" stroke-width="4" stroke-linecap="round"/>
<line x1="279.50" y1="256.05" x2="255.00" y2="258.07" stroke="#333333" stroke-width="4" stroke-linecap="round"/>
<line x1="255.00" y1="298.49" x2="255.00" y2="258.07" stroke="#333333" stroke-width="4" stroke-linecap="round"/>
<line x1="244.50" y1="280.30" x2="255.00" y2="258.07" stroke="#333333" stroke-width="4" stroke-linecap="round"/>
<line x1="230.50" y1="256.05" x2="255.00" y2="258.07" stroke="#333333" stroke-width="4" stroke-linecap="round"/>
<polygon points="255.00,56.00 45.00,419.73 465.00,419.73" fill="none" stroke="#333333" stroke-width="3"/>
<text x="260.8" y="166.4" font-size="18" text-anchor="middle" fill="#222222" font-weight="bold" font-family="sans-serif">A</text>
<text x="353.0" y="288.3" font-size="18" text-anchor="middle" fill="#222222" font-weight="bold" font-family="sans-serif">B</text>
<text x="345.0" y="362.2" font-size="18" text-anchor="middle" fill="#222222" font-weight="bold" font-family="sans-serif">C</text>
<text x="248.0" y="373.2" font-size="18" text-anchor="middle" fill="#222222" font-weight="bold" font-family="sans-serif">D</text>
<text x="153.5" y="342.9" font-size="18" text-anchor="middle" fill="#222222" font-weight="bold" font-family="sans-serif">E</text>
<text x="185.0" y="223.7" font-size="18" text-anchor="middle" fill="#222222" font-weight="bold" font-family="sans-serif">F</text>
<text x="220.0" y="203.5" font-size="18" text-anchor="middle" fill="#222222" font-weight="bold" font-family="sans-serif">G</text>
<polygon points="700.00,116.62 770.00,116.62 735.00,56.00" fill="#f2c14e" stroke="#aaaaaa" stroke-width="1"/>
<polygon points="665.00,177.24 735.00,177.24 700.00,116.62" fill="#f2c14e" stroke="#aaaaaa" stroke-width="1"/>
<polygon points="700.00,116.62 770.00,116.62 735.00,177.24" fill="#f2c14e" stroke="#aaaaaa" stroke-width="1"/>
<polygon points="735.00,177.24 805.00,177.24 770.00,116.62" fill="#f2c14e" stroke="#aaaaaa" stroke-width="1"/>
<polygon points="630.00,237.87 700.00,237.87 665.00,177.24" fill="#e59866" stroke="#aaaaaa" stroke-width="1"/>
<polygon points="665.00,177.24 735.00,177.24 700.00,237.87" fill="#aab7b8" stroke="#aaaaaa" stroke-width="1"/>
<polygon points="700.00,237.87 770.00,237.87 735.00,177.24" fill="#f2c14e" stroke="#aaaaaa" stroke-width="1"/>
<polygon points="735.00,177.24 805.00,177.24 770.00,237.87" fill="#f2c14e" stroke="#aaaaaa" stroke-width="1"/>
<polygon points="770.00,237.87 840.00,237.87 805.00,177.24" fill="#7fb3d5" stroke="#aaaaaa" stroke-width="1"/>
<polygon points="595.00,298.49 665.00,298.49 630.00,237.87" fill="#c39bd3" stroke="#aaaaaa" stroke-width="1"/>
<polygon points="630.00,237.87 700.00,237.87 665.00,298.49" fill="#c39bd3" stroke="#aaaaaa" stroke-width="1"/>
<polygon points="665.00,298.49 735.00,298.49 700.00,237.87" fill="#c39bd3" stroke="#aaaaaa" stroke-width="1"/>
<polygon points="700.00,237.87 770.00,237.87 735.00,298.49" fill="#ffffff" stroke="#aaaaaa" stroke-width="1"/>
<polygon points="735.00,298.49 805.00,298.49 770.00,237.87" fill="#8fce9f" stroke="#aaaaaa" stroke-width="1"/>
<polygon points="770.00,237.87 840.00,237.87 805.00,298.49" fill="#7fb3d5" stroke="#aaaaaa" stroke-width="1"/>
<polygon points="805.00,298.49 875.00,298.49 840.00,237.87" fill="#7fb3d5" stroke="#aaaaaa" stroke-width="1"/>
<polygon points="560.00,359.11 630.00,359.11 595.00,298.49" fill="#c39bd3" stroke="#aaaaaa" stroke-width="1"/>
<polygon points="595.00,298.49 665.00,298.49 630.00,359.11" fill="#c39bd3" stroke="#aaaaaa" stroke-width="1"/>
<polygon points="630.00,359.11 700.00,359.11 665.00,298.49" fill="#c39bd3" stroke="#aaaaaa" stroke-width="1"/>
<polygon points="665.00,298.49 735.00,298.49 700.00,359.11" fill="#e57373" stroke="#aaaaaa" stroke-width="1"/>
<polygon points="700.00,359.11 770.00,359.11 735.00,298.49" fill="#e57373" stroke="#aaaaaa" stroke-width="1"/>
<polygon points="735.00,298.49 805.00,298.49 770.00,359.11" fill="#8fce9f" stroke="#aaaaaa" stroke-width="1"/>
<polygon points="770.00,359.11 840.00,359.11 805.00,298.49" fill="#8fce9f" stroke="#aaaaaa" stroke-width="1"/>
<polygon points="805.00,298.49 875.00,298.49 840.00,359.11" fill="#7fb3d5" stroke="#aaaaaa" stroke-width="1"/>
<polygon points="840.00,359.11 910.00,359.11 875.00,298.49" fill="#7fb3d5" stroke="#aaaaaa" stroke-width="1"/>
<polygon points="525.00,419.73 595.00,419.73 560.00,359.11" fill="#c39bd3" stroke="#aaaaaa" stroke-width="1"/>
<polygon points="560.00,359.11 630.00,359.11 595.00,419.73" fill="#c39bd3" stroke="#aaaaaa" stroke-width="1"/>
<polygon points="595.00,419.73 665.00,419.73 630.00,359.11" fill="#c39bd3" stroke="#aaaaaa" stroke-width="1"/>
<polygon points="630.00,359.11 700.00,359.11 665.00,419.73" fill="#c39bd3" stroke="#aaaaaa" stroke-width="1"/>
<polygon points="665.00,419.73 735.00,419.73 700.00,359.11" fill="#e57373" stroke="#aaaaaa" stroke-width="1"/>
<polygon points="700.00,359.11 770.00,359.11 735.00,419.73" fill="#e57373" stroke="#aaaaaa" stroke-width="1"/>
<polygon points="735.00,419.73 805.00,419.73 770.00,359.11" fill="#e57373" stroke="#aaaaaa" stroke-width="1"/>
<polygon points="770.00,359.11 840.00,359.11 805.00,419.73" fill="#8fce9f" stroke="#aaaaaa" stroke-width="1"/>
<polygon points="805.00,419.73 875.00,419.73 840.00,359.11" fill="#8fce9f" stroke="#aaaaaa" stroke-width="1"/>
<polygon points="840.00,359.11 910.00,359.11 875.00,419.73" fill="#8fce9f" stroke="#aaaaaa" stroke-width="1"/>
<polygon points="875.00,419.73 945.00,419.73 910.00,359.11" fill="#8fce9f" stroke="#aaaaaa" stroke-width="1"/>
<line x1="665.00" y1="177.24" x2="735.00" y2="177.24" stroke="#333333" stroke-width="4" stroke-linecap="round"/>
<line x1="665.00" y1="177.24" x2="700.00" y2="237.87" stroke="#333333" stroke-width="4" stroke-linecap="round"/>
<line x1="630.00" y1="237.87" x2="700.00" y2="237.87" stroke="#333333" stroke-width="4" stroke-linecap="round"/>
<line x1="700.00" y1="237.87" x2="735.00" y2="177.24" stroke="#333333" stroke-width="4" stroke-linecap="round"/>
<line x1="770.00" y1="237.87" x2="805.00" y2="177.24" stroke="#333333" stroke-width="4" stroke-linecap="round"/>
<line x1="665.00" y1="298.49" x2="735.00" y2="298.49" stroke="#333333" stroke-width="4" stroke-linecap="round"/>
<line x1="770.00" y1="237.87" x2="805.00" y2="298.49" stroke="#333333" stroke-width="4" stroke-linecap="round"/>
<line x1="665.00" y1="298.49" x2="700.00" y2="359.11" stroke="#333333" stroke-width="4" stroke-linecap="round"/>
<line x1="735.00" y1="298.49" x2="770.00" y2="359.11" stroke="#333333" stroke-width="4" stroke-linecap="round"/>
<line x1="805.00" y1="298.49" x2="840.00" y2="359.11" stroke="#333333" stroke-width="4" stroke-linecap="round"/>
<line x1="840.00" y1="359.11" x2="910.00" y2="359.11" stroke="#333333" stroke-width="4" stroke-linecap="round"/>
<line x1="665.00" y1="419.73" x2="700.00" y2="359.11" stroke="#333333" stroke-width="4" stroke-linecap="round"/>
<line x1="770.00" y1="359.11" x2="805.00" y2="419.73" stroke="#333333" stroke-width="4" stroke-linecap="round"/>
<line x1="700.00" y1="237.87" x2="770.00" y2="237.87" stroke="#333333" stroke-width="4" stroke-linecap="round"/>
<line x1="700.00" y1="237.87" x2="735.00" y2="298.49" stroke="#333333" stroke-width="4" stroke-linecap="round"/>
<line x1="735.00" y1="298.49" x2="770.00" y2="237.87" stroke="#333333" stroke-width="4" stroke-linecap="round"/>
<polygon points="735.00,56.00 525.00,419.73 945.00,419.73" fill="none" stroke="#333333" stroke-width="3"/>
<line x1="1215.00" y1="217.66" x2="1215.00" y2="258.07" stroke="#c0c0c0" stroke-width="1.2" stroke-dasharray="2 3"/>
<line x1="1180.00" y1="278.28" x2="1215.00" y2="258.07" stroke="#c0c0c0" stroke-width="1.2" stroke-dasharray="2 3"/>
<line x1="1215.00" y1="258.07" x2="1250.00" y2="278.28" stroke="#c0c0c0" stroke-width="1.2" stroke-dasharray="2 3"/>
<line x1="1215.00" y1="96.41" x2="1215.00" y2="136.83" stroke="#999999" stroke-width="1.5" stroke-dasharray="5 4"/>
<line x1="1180.00" y1="157.04" x2="1215.00" y2="136.83" stroke="#999999" stroke-width="1.5" stroke-dasharray="5 4"/>
<line x1="1215.00" y1="136.83" x2="1250.00" y2="157.04" stroke="#999999" stroke-width="1.5" stroke-dasharray="5 4"/>
<line x1="1250.00" y1="157.04" x2="1250.00" y2="197.45" stroke="#999999" stroke-width="1.5" stroke-dasharray="5 4"/>
<line x1="1215.00" y1="217.66" x2="1250.00" y2="197.45" stroke="#999999" stroke-width="1.5" stroke-dasharray="5 4"/>
<line x1="1285.00" y1="217.66" x2="1285.00" y2="258.07" stroke="#999999" stroke-width="1.5" stroke-dasharray="5 4"/>
<line x1="1110.00" y1="278.28" x2="1145.00" y2="258.07" stroke="#999999" stroke-width="1.5" stroke-dasharray="5 4"/>
<line x1="1110.00" y1="278.28" x2="1110.00" y2="318.69" stroke="#999999" stroke-width="1.5" stroke-dasharray="5 4"/>
<line x1="1145.00" y1="258.07" x2="1180.00" y2="278.28" stroke="#999999" stroke-width="1.5" stroke-dasharray="5 4"/>
<line x1="1250.00" y1="278.28" x2="1250.00" y2="318.69" stroke="#999999" stroke-width="1.5" stroke-dasharray="5 4"/>
<line x1="1285.00" y1="258.07" x2="1320.00" y2="278.28" stroke="#999999" stroke-width="1.5" stroke-dasharray="5 4"/>
<line x1="1320.00" y1="278.28" x2="1320.00" y2="318.69" stroke="#999999" stroke-width="1.5" stroke-dasharray="5 4"/>
<line x1="1075.00" y1="338.90" x2="1110.00" y2="318.69" stroke="#999999" stroke-width="1.5" stroke-dasharray="5 4"/>
<line x1="1075.00" y1="338.90" x2="1075.00" y2="379.32" stroke="#999999" stroke-width="1.5" stroke-dasharray="5 4"/>
<line x1="1110.00" y1="318.69" x2="1145.00" y2="338.90" stroke="#999999" stroke-width="1.5" stroke-dasharray="5 4"/>
<line x1="1145.00" y1="338.90" x2="1145.00" y2="379.32" stroke="#999999" stroke-width="1.5" stroke-dasharray="5 4"/>
<line x1="1180.00" y1="318.69" x2="1215.00" y2="338.90" stroke="#999999" stroke-width="1.5" stroke-dasharray="5 4"/>
<line x1="1215.00" y1="338.90" x2="1215.00" y2="379.32" stroke="#999999" stroke-width="1.5" stroke-dasharray="5 4"/>
<line x1="1250.00" y1="318.69" x2="1285.00" y2="338.90" stroke="#999999" stroke-width="1.5" stroke-dasharray="5 4"/>
<line x1="1285.00" y1="338.90" x2="1285.00" y2="379.32" stroke="#999999" stroke-width="1.5" stroke-dasharray="5 4"/>
<line x1="1320.00" y1="318.69" x2="1355.00" y2="338.90" stroke="#999999" stroke-width="1.5" stroke-dasharray="5 4"/>
<line x1="1040.00" y1="399.52" x2="1075.00" y2="379.32" stroke="#999999" stroke-width="1.5" stroke-dasharray="5 4"/>
<line x1="1075.00" y1="379.32" x2="1110.00" y2="399.52" stroke="#999999" stroke-width="1.5" stroke-dasharray="5 4"/>
<line x1="1110.00" y1="399.52" x2="1145.00" y2="379.32" stroke="#999999" stroke-width="1.5" stroke-dasharray="5 4"/>
<line x1="1180.00" y1="399.52" x2="1215.00" y2="379.32" stroke="#999999" stroke-width="1.5" stroke-dasharray="5 4"/>
<line x1="1215.00" y1="379.32" x2="1250.00" y2="399.52" stroke="#999999" stroke-width="1.5" stroke-dasharray="5 4"/>
<line x1="1285.00" y1="379.32" x2="1320.00" y2="399.52" stroke="#999999" stroke-width="1.5" stroke-dasharray="5 4"/>
<line x1="1320.00" y1="399.52" x2="1355.00" y2="379.32" stroke="#999999" stroke-width="1.5" stroke-dasharray="5 4"/>
<line x1="1355.00" y1="379.32" x2="1390.00" y2="399.52" stroke="#999999" stroke-width="1.5" stroke-dasharray="5 4"/>
<line x1="1180.00" y1="157.04" x2="1180.00" y2="197.45" stroke="#333333" stroke-width="2.5"/>
<line x1="1145.00" y1="217.66" x2="1180.00" y2="197.45" stroke="#333333" stroke-width="2.5"/>
<line x1="1145.00" y1="217.66" x2="1145.00" y2="258.07" stroke="#333333" stroke-width="2.5"/>
<line x1="1180.00" y1="197.45" x2="1215.00" y2="217.66" stroke="#333333" stroke-width="2.5"/>
<line x1="1250.00" y1="197.45" x2="1285.00" y2="217.66" stroke="#333333" stroke-width="2.5"/>
<line x1="1180.00" y1="278.28" x2="1180.00" y2="318.69" stroke="#333333" stroke-width="2.5"/>
<line x1="1250.00" y1="278.28" x2="1285.00" y2="258.07" stroke="#333333" stroke-width="2.5"/>
<line x1="1145.00" y1="338.90" x2="1180.00" y2="318.69" stroke="#333333" stroke-width="2.5"/>
<line x1="1215.00" y1="338.90" x2="1250.00" y2="318.69" stroke="#333333" stroke-width="2.5"/>
<line x1="1285.00" y1="338.90" x2="1320.00" y2="318.69" stroke="#333333" stroke-width="2.5"/>
<line x1="1355.00" y1="338.90" x2="1355.00" y2="379.32" stroke="#333333" stroke-width="2.5"/>
<line x1="1145.00" y1="379.32" x2="1180.00" y2="399.52" stroke="#333333" stroke-width="2.5"/>
<line x1="1250.00" y1="399.52" x2="1285.00" y2="379.32" stroke="#333333" stroke-width="2.5"/>
<circle cx="1215.00" cy="96.41" r="8.5" fill="#f2c14e" stroke="#444444" stroke-width="1.2"/>
<text x="1215.0" y="79.9" font-size="12" text-anchor="middle" fill="#222222" font-family="sans-serif">(1,1)</text>
<circle cx="1180.00" cy="157.04" r="8.5" fill="#f2c14e" stroke="#444444" stroke-width="1.2"/>
<text x="1180.0" y="140.5" font-size="12" text-anchor="middle" fill="#222222" font-family="sans-serif">(2,1)</text>
<circle cx="1215.00" cy="136.83" r="8.5" fill="#f2c14e" stroke="#444444" stroke-width="1.2"/>
<text x="1215.0" y="160.3" font-size="12" text-anchor="middle" fill="#222222" font-family="sans-serif">(2,2)</text>
<circle cx="1250.00" cy="157.04" r="8.5" fill="#f2c14e" stroke="#444444" stroke-width="1.2"/>
<text x="1250.0" y="140.5" font-size="12" text-anchor="middle" fill="#222222" font-family="sans-serif">(2,3)</text>
<circle cx="1145.00" cy="217.66" r="8.5" fill="#e59866" stroke="#444444" stroke-width="1.2"/>
<text x="1145.0" y="201.2" font-size="12" text-anchor="middle" fill="#222222" font-family="sans-serif">(3,1)</text>
<circle cx="1180.00" cy="197.45" r="8.5" fill="#aab7b8" stroke="#444444" stroke-width="1.2"/>
<text x="1180.0" y="221.0" font-size="12" text-anchor="middle" fill="#222222" font-family="sans-serif">(3,2)</text>
<circle cx="1215.00" cy="217.66" r="8.5" fill="#f2c14e" stroke="#444444" stroke-width="1.2"/>
<text x="1215.0" y="201.2" font-size="12" text-anchor="middle" fill="#222222" font-family="sans-serif">(3,3)</text>
<circle cx="1250.00" cy="197.45" r="8.5" fill="#f2c14e" stroke="#444444" stroke-width="1.2"/>
<text x="1250.0" y="221.0" font-size="12" text-anchor="middle" fill="#222222" font-family="sans-serif">(3,4)</text>
<circle cx="1285.00" cy="217.66" r="8.5" fill="#7fb3d5" stroke="#444444" stroke-width="1.2"/>
<text x="1285.0" y="201.2" font-size="12" text-anchor="middle" fill="#222222" font-family="sans-serif">(3,5)</text>
<circle cx="1110.00" cy="278.28" r="8.5" fill="#c39bd3" stroke="#444444" stroke-width="1.2"/>
<text x="1110.0" y="261.8" font-size="12" text-anchor="middle" fill="#222222" font-family="sans-serif">(4,1)</text>
<circle cx="1145.00" cy="258.07" r="8.5" fill="#c39bd3" stroke="#444444" stroke-width="1.2"/>
<text x="1145.0" y="281.6" font-size="12" text-anchor="middle" fill="#222222" font-family="sans-serif">(4,2)</text>
<circle cx="1180.00" cy="278.28" r="8.5" fill="#c39bd3" stroke="#444444" stroke-width="1.2"/>
<text x="1180.0" y="261.8" font-size="12" text-anchor="middle" fill="#222222" font-family="sans-serif">(4,3)</text>
<circle cx="1215.00" cy="258.07" r="8.5" fill="#ffffff" stroke="#444444" stroke-width="1.2" stroke-dasharray="3 2"/>
<text x="1215.0" y="281.6" font-size="12" text-anchor="middle" fill="#222222" font-family="sans-serif">(4,4)</text>
<circle cx="1250.00" cy="278.28" r="8.5" fill="#8fce9f" stroke="#444444" stroke-width="1.2"/>
<text x="1250.0" y="261.8" font-size="12" text-anchor="middle" fill="#222222" font-family="sans-serif">(4,5)</text>
<circle cx="1285.00" cy="258.07" r="8.5" fill="#7fb3d5" stroke="#444444" stroke-width="1.2"/>
<text x="1285.0" y="281.6" font-size="12" text-anchor="middle" fill="#222222" font-family="sans-serif">(4,6)</text>
<circle cx="1320.00" cy="278.28" r="8.5" fill="#7fb3d5" stroke="#444444" stroke-width="1.2"/>
<text x="1320.0" y="261.8" font-size="12" text-anchor="middle" fill="#222222" font-family="sans-serif">(4,7)</text>
<circle cx="1075.00" cy="338.90" r="8.5" fill="#c39bd3" stroke="#444444" stroke-width="1.2"/>
<text x="1075.0" y="322.4" font-size="12" text-anchor="middle" fill="#222222" font-family="sans-serif">(5,1)</text>
<circle cx="1110.00" cy="318.69" r="8.5" fill="#c39bd3" stroke="#444444" stroke-width="1.2"/>
<text x="1110.0" y="342.2" font-size="12" text-anchor="middle" fill="#222222" font-family="sans-serif">(5,2)</text>
<circle cx="1145.00" cy="338.90" r="8.5" fill="#c39bd3" stroke="#444444" stroke-width="1.2"/>
<text x="1145.0" y="322.4" font-size="12" text-anchor="middle" fill="#222222" font-family="sans-serif">(5,3)</text>
<circle cx="1180.00" cy="318.69" r="8.5" fill="#e57373" stroke="#444444" stroke-width="1.2"/>
<text x="1180.0" y="342.2" font-size="12" text-anchor="middle" fill="#222222" font-family="sans-serif">(5,4)</text>
<circle cx="1215.00" cy="338.90" r="8.5" fill="#e57373" stroke="#444444" stroke-width="1.2"/>
<text x="1215.0" y="322.4" font-size="12" text-anchor="middle" fill="#222222" font-family="sans-serif">(5,5)</text>
<circle cx="1250.00" cy="318.69" r="8.5" fill="#8fce9f" stroke="#444444" stroke-width="1.2"/>
<text x="1250.0" y="342.2" font-size="12" text-anchor="middle" fill="#222222" font-family="sans-serif">(5,6)</text>
<circle cx="1285.00" cy="338.90" r="8.5" fill="#8fce9f" stroke="#444444" stroke-width="1.2"/>
<text x="1285.0" y="322.4" font-size="12" text-anchor="middle" fill="#222222" font-family="sans-serif">(5,7)</text>
<circle cx="1320.00" cy="318.69" r="8.5" fill="#7fb3d5" stroke="#444444" stroke-width="1.2"/>
<text x="1320.0" y="342.2" font-size="12" text-anchor="middle" fill="#222222" font-family="sans-serif">(5,8)</text>
<circle cx="1355.00" cy="338.90" r="8.5" fill="#7fb3d5" stroke="#444444" stroke-width="1.2"/>
<text x="1355.0" y="322.4" font-size="12" text-anchor="middle" fill="#222222" font-family="sans-serif">(5,9)</text>
<circle cx="1040.00" cy="399.52" r="8.5" fill="#c39bd3" stroke="#444444" stroke-width="1.2"/>
<text x="1040.0" y="383.0" font-size="12" text-anchor="middle" fill="#222222" font-family="sans-serif">(6,1)</text>
<circle cx="1075.00" cy="379.32" r="8.5" fill="#c39bd3" stroke="#444444" stroke-width="1.2"/>
<text x="1075.0" y="402.8" font-size="12" text-anchor="middle" fill="#222222" font-family="sans-serif">(6,2)</text>
<circle cx="1110.00" cy="399.52" r="8.5" fill="#c39bd3" stroke="#444444" stroke-width="1.2"/>
<text x="1110.0" y="383.0" font-size="12" text-anchor="middle" fill="#222222" font-family="sans-serif">(6,3)</text>
<circle cx="1145.00" cy="379.32" r="8.5" fill="#c39bd3" stroke="#444444" stroke-width="1.2"/>
<text x="1145.0" y="402.8" font-size="12" text-anchor="middle" fill="#222222" font-family="sans-serif">(6,4)</text>
<circle cx="1180.00" cy="399.52" r="8.5" fill="#e57373" stroke="#444444" stroke-width="1.2"/>
<text x="1180.0" y="383.0" font-size="12" text-anchor="middle" fill="#222222" font-family="sans-serif">(6,5)</text>
<circle cx="1215.00" cy="379.32" r="8.5" fill="#e57373" stroke="#444444" stroke-width="1.2"/>
<text x="1215.0" y="402.8" font-size="12" text-anchor="middle" fill="#222222" font-family="sans-serif">(6,6)</text>
<circle cx="1250.00" cy="399.52" r="8.5" fill="#e57373" stroke="#444444" stroke-width="1.2"/>
<text x="1250.0" y="383.0" font-size="12" text-anchor="middle" fill="#222222" font-family="sans-serif">(6,7)</text>
<circle cx="1285.00" cy="379.32" r="8.5" fill="#8fce9f" stroke="#444444" stroke-width="1.2"/>
<text x="1285.0" y="402.8" font-size="12" text-anchor="middle" fill="#222222" font-family="sans-serif">(6,8)</text>
<circle cx="1320.00" cy="399.52" r="8.5" fill="#8fce9f" stroke="#444444" stroke-width="1.2"/>
<text x="1320.0" y="383.0" font-size="12" text-anchor="middle" fill="#222222" font-family="sans-serif">(6,9)</text>
<circle cx="1355.00" cy="379.32" r="8.5" fill="#8fce9f" stroke="#444444" stroke-width="1.2"/>
<text x="1355.0" y="402.8" font-size="12" text-anchor="middle" fill="#222222" font-family="sans-serif">(6,10)</text>
<circle cx="1390.00" cy="399.52" r="8.5" fill="#8fce9f" stroke="#444444" stroke-width="1.2"/>
<text x="1390.0" y="383.0" font-size="12" text-anchor="middle" fill="#222222" font-family="sans-serif">(6,11)</text>
<line x1="990.00" y1="457.73" x2="1034.00" y2="457.73" stroke="#999999" stroke-width="1.5" stroke-dasharray="5 4"/>
<text x="1042.0" y="462.7" font-size="13" text-anchor="start" fill="#222222" font-family="sans-serif">同じ国 (same_value=True)</text>
<line x1="1230.00" y1="457.73" x2="1274.00" y2="457.73" stroke="#333333" stroke-width="2.5"/>
<text x="1282.0" y="462.7" font-size="13" text-anchor="start" fill="#222222" font-family="sans-serif">国境 (False)</text>
<line x1="990.00" y1="481.73" x2="1034.00" y2="481.73" stroke="#c0c0c0" stroke-width="1.2" stroke-dasharray="2 3"/>
<text x="1042.0" y="486.7" font-size="13" text-anchor="start" fill="#222222" font-family="sans-serif">無色ノードに接する (None: 制約なし)</text>
</svg>