<svg viewBox="0 0 548 242" xmlns="http://www.w3.org/2000/svg">
<text x="136.0" y="36.0" font-size="16" text-anchor="middle" fill="#222222" font-weight="bold" font-family="sans-serif">横ラベル h（行スキャン）</text>
<rect x="24.0" y="50.0" width="56" height="56" fill="#f2c14e" stroke="#aaaaaa" stroke-width="1"/>
<text x="52.0" y="83.0" font-size="15" text-anchor="middle" fill="#222222" font-weight="bold" font-family="sans-serif">1</text>
<rect x="80.0" y="50.0" width="56" height="56" fill="#f2c14e" stroke="#aaaaaa" stroke-width="1"/>
<text x="108.0" y="83.0" font-size="15" text-anchor="middle" fill="#222222" font-weight="bold" font-family="sans-serif">1</text>
<rect x="136.0" y="50.0" width="56" height="56" fill="#7fb3d5" stroke="#aaaaaa" stroke-width="1"/>
<text x="164.0" y="83.0" font-size="15" text-anchor="middle" fill="#222222" font-weight="bold" font-family="sans-serif">2</text>
<rect x="192.0" y="50.0" width="56" height="56" fill="#7fb3d5" stroke="#aaaaaa" stroke-width="1"/>
<text x="220.0" y="83.0" font-size="15" text-anchor="middle" fill="#222222" font-weight="bold" font-family="sans-serif">2</text>
<rect x="24.0" y="106.0" width="56" height="56" fill="#f2c14e" stroke="#aaaaaa" stroke-width="1"/>
<text x="52.0" y="139.0" font-size="15" text-anchor="middle" fill="#222222" font-weight="bold" font-family="sans-serif">4</text>
<rect x="80.0" y="106.0" width="56" height="56" fill="#8fce9f" stroke="#aaaaaa" stroke-width="1"/>
<text x="108.0" y="139.0" font-size="15" text-anchor="middle" fill="#222222" font-weight="bold" font-family="sans-serif">5</text>
<rect x="136.0" y="106.0" width="56" height="56" fill="#8fce9f" stroke="#aaaaaa" stroke-width="1"/>
<text x="164.0" y="139.0" font-size="15" text-anchor="middle" fill="#222222" font-weight="bold" font-family="sans-serif">5</text>
<rect x="192.0" y="106.0" width="56" height="56" fill="#7fb3d5" stroke="#aaaaaa" stroke-width="1"/>
<text x="220.0" y="139.0" font-size="15" text-anchor="middle" fill="#222222" font-weight="bold" font-family="sans-serif">6</text>
<rect x="24.0" y="162.0" width="56" height="56" fill="#e57373" stroke="#aaaaaa" stroke-width="1"/>
<text x="52.0" y="195.0" font-size="15" text-anchor="middle" fill="#222222" font-weight="bold" font-family="sans-serif">8</text>
<rect x="80.0" y="162.0" width="56" height="56" fill="#e57373" stroke="#aaaaaa" stroke-width="1"/>
<text x="108.0" y="195.0" font-size="15" text-anchor="middle" fill="#222222" font-weight="bold" font-family="sans-serif">8</text>
<rect x="136.0" y="162.0" width="56" height="56" fill="#8fce9f" stroke="#aaaaaa" stroke-width="1"/>
<text x="164.0" y="195.0" font-size="15" text-anchor="middle" fill="#222222" font-weight="bold" font-family="sans-serif">9</text>
<rect x="192.0" y="162.0" width="56" height="56" fill="#7fb3d5" stroke="#aaaaaa" stroke-width="1"/>
<text x="220.0" y="195.0" font-size="15" text-anchor="middle" fill="#222222" font-weight="bold" font-family="sans-serif">10</text>
<line x1="136.00" y1="50.00" x2="136.00" y2="106.00" stroke="#333333" stroke-width="3"/>
<line x1="80.00" y1="106.00" x2="136.00" y2="106.00" stroke="#333333" stroke-width="3"/>
<line x1="136.00" y1="106.00" x2="192.00" y2="106.00" stroke="#333333" stroke-width="3"/>
<line x1="80.00" y1="106.00" x2="80.00" y2="162.00" stroke="#333333" stroke-width="3"/>
<line x1="24.00" y1="162.00" x2="80.00" y2="162.00" stroke="#333333" stroke-width="3"/>
<line x1="80.00" y1="162.00" x2="136.00" y2="162.00" stroke="#333333" stroke-width="3"/>
<line x1="192.00" y1="106.00" x2="192.00" y2="162.00" stroke="#333333" stroke-width="3"/>
<line x1="136.00" y1="162.00" x2="136.00" y2="218.00" stroke="#333333" stroke-width="3"/>
<line x1="192.00" y1="162.00" x2="192.00" y2="218.00" stroke="#333333" stroke-width="3"/>
<rect x="24.0" y="50.0" width="224" height="168" fill="none" stroke="#333333" stroke-width="3"/>
<text x="412.0" y="36.0" font-size="16" text-anchor="middle" fill="#222222" font-weight="bold" font-family="sans-serif">縦ラベル v（列スキャン）</text>
<rect x="300.0" y="50.0" width="56" height="56" fill="#f2c14e" stroke="#aaaaaa" stroke-width="1"/>
<text x="328.0" y="83.0" font-size="15" text-anchor="middle" fill="#222222" font-weight="bold" font-family="sans-serif">1</text>
<rect x="356.0" y="50.0" width="56" height="56" fill="#f2c14e" stroke="#aaaaaa" stroke-width="1"/>
<text x="384.0" y="83.0" font-size="15" text-anchor="middle" fill="#222222" font-weight="bold" font-family="sans-serif">4</text>
<rect x="412.0" y="50.0" width="56" height="56" fill="#7fb3d5" stroke="#aaaaaa" stroke-width="1"/>
<text x="440.0" y="83.0" font-size="15" text-anchor="middle" fill="#222222" font-weight="bold" font-family="sans-serif">8</text>
<rect x="468.0" y="50.0" width="56" height="56" fill="#7fb3d5" stroke="#aaaaaa" stroke-width="1"/>
<text x="496.0" y="83.0" font-size="15" text-anchor="middle" fill="#222222" font-weight="bold" font-family="sans-serif">11</text>
<rect x="300.0" y="106.0" width="56" height="56" fill="#f2c14e" stroke="#aaaaaa" stroke-width="1"/>
<text x="328.0" y="139.0" font-size="15" text-anchor="middle" fill="#222222" font-weight="bold" font-family="sans-serif">1</text>
<rect x="356.0" y="106.0" width="56" height="56" fill="#8fce9f" stroke="#aaaaaa" stroke-width="1"/>
<text x="384.0" y="139.0" font-size="15" text-anchor="middle" fill="#222222" font-weight="bold" font-family="sans-serif">5</text>
<rect x="412.0" y="106.0" width="56" height="56" fill="#8fce9f" stroke="#aaaaaa" stroke-width="1"/>
<text x="440.0" y="139.0" font-size="15" text-anchor="middle" fill="#222222" font-weight="bold" font-family="sans-serif">9</text>
<rect x="468.0" y="106.0" width="56" height="56" fill="#7fb3d5" stroke="#aaaaaa" stroke-width="1"/>
<text x="496.0" y="139.0" font-size="15" text-anchor="middle" fill="#222222" font-weight="bold" font-family="sans-serif">11</text>
<rect x="300.0" y="162.0" width="56" height="56" fill="#e57373" stroke="#aaaaaa" stroke-width="1"/>
<text x="328.0" y="195.0" font-size="15" text-anchor="middle" fill="#222222" font-weight="bold" font-family="sans-serif">2</text>
<rect x="356.0" y="162.0" width="56" height="56" fill="#e57373" stroke="#aaaaaa" stroke-width="1"/>
<text x="384.0" y="195.0" font-size="15" text-anchor="middle" fill="#222222" font-weight="bold" font-family="sans-serif">6</text>
<rect x="412.0" y="162.0" width="56" height="56" fill="#8fce9f" stroke="#aaaaaa" stroke-width="1"/>
<text x="440.0" y="195.0" font-size="15" text-anchor="middle" fill="#222222" font-weight="bold" font-family="sans-serif">9</text>
<rect x="468.0" y="162.0" width="56" height="56" fill="#7fb3d5" stroke="#aaaaaa" stroke-width="1"/>
<text x="496.0" y="195.0" font-size="15" text-anchor="middle" fill="#222222" font-weight="bold" font-family="sans-serif">11</text>
<line x1="412.00" y1="50.00" x2="412.00" y2="106.00" stroke="#333333" stroke-width="3"/>
<line x1="356.00" y1="106.00" x2="412.00" y2="106.00" stroke="#333333" stroke-width="3"/>
<line x1="412.00" y1="106.00" x2="468.00" y2="106.00" stroke="#333333" stroke-width="3"/>
<line x1="356.00" y1="106.00" x2="356.00" y2="162.00" stroke="#333333" stroke-width="3"/>
<line x1="300.00" y1="162.00" x2="356.00" y2="162.00" stroke="#333333" stroke-width="3"/>
<line x1="356.00" y1="162.00" x2="412.00" y2="162.00" stroke="#333333" stroke-width="3"/>
<line x1="468.00" y1="106.00" x2="468.00" y2="162.00" stroke="#333333" stroke-width="3"/>
<line x1="412.00" y1="162.00" x2="412.00" y2="218.00" stroke="#333333" stroke-width="3"/>
<line x1="468.00" y1="162.00" x2="468.00" y2="218.00" stroke="#333333" stroke-width="3"/>
<rect x="300.0" y="50.0" width="224" height="168" fill="none" stroke="#333333" stroke-width="3"/>
</svg>